<svg width="124" height="52" viewBox="0 0 124 52" fill="none" xmlns="http://www.w3.org/2000/svg">
<path d="M14.7036 13.4172C15.3027 12.4164 16.6972 12.4164 17.2963 13.4172L20.8146 19.2937C21.0245 19.6443 21.3562 19.8962 21.74 19.9965L28.1739 21.6782C29.2695 21.9646 29.7005 23.3509 28.9751 24.2557L24.7156 29.5693C24.4615 29.8863 24.3348 30.2939 24.3621 30.7065L24.8202 37.6223C24.8983 38.8001 23.7701 39.6569 22.7227 39.2154L16.5719 36.6228C16.205 36.4681 15.795 36.4681 15.428 36.6228L9.27727 39.2154C8.22984 39.6569 7.10166 38.8001 7.17968 37.6223L7.63782 30.7065C7.66515 30.2939 7.53845 29.8863 7.28434 29.5693L3.02483 24.2557C2.29946 23.3509 2.73039 21.9646 3.82604 21.6782L10.2599 19.9965C10.6438 19.8962 10.9755 19.6443 11.1853 19.2937L14.7036 13.4172Z" fill="#FFD53F"/>
<path d="M59.8934 5.55301C60.867 3.92683 63.1331 3.92683 64.1067 5.55302L69.8238 15.1024C70.1649 15.6721 70.7039 16.0814 71.3276 16.2444L81.7827 18.9771C83.5631 19.4425 84.2633 21.6953 83.0846 23.1657L76.1629 31.8002C75.75 32.3153 75.5441 32.9777 75.5885 33.6481L76.333 44.8864C76.4598 46.8002 74.6265 48.1925 72.9244 47.4751L62.9294 43.2621C62.3332 43.0108 61.6669 43.0108 61.0707 43.2621L51.0757 47.4751C49.3736 48.1925 47.5403 46.8002 47.6671 44.8864L48.4116 33.6481C48.456 32.9777 48.2501 32.3153 47.8372 31.8002L40.9155 23.1657C39.7367 21.6953 40.437 19.4425 42.2174 18.9771L52.6725 16.2444C53.2962 16.0814 53.8352 15.6721 54.1763 15.1024L59.8934 5.55301Z" fill="#FFD53F"/>
<path d="M106.704 13.4172C107.303 12.4164 108.697 12.4164 109.296 13.4172L112.815 19.2937C113.024 19.6443 113.356 19.8962 113.74 19.9965L120.174 21.6782C121.27 21.9646 121.7 23.3509 120.975 24.2557L116.716 29.5693C116.461 29.8863 116.335 30.2939 116.362 30.7065L116.82 37.6223C116.898 38.8001 115.77 39.6569 114.723 39.2154L108.572 36.6228C108.205 36.4681 107.795 36.4681 107.428 36.6228L101.277 39.2154C100.23 39.6569 99.1017 38.8001 99.1797 37.6223L99.6378 30.7065C99.6651 30.2939 99.5385 29.8863 99.2843 29.5693L95.0248 24.2557C94.2995 23.3509 94.7304 21.9646 95.826 21.6782L102.26 19.9965C102.644 19.8962 102.975 19.6443 103.185 19.2937L106.704 13.4172Z" fill="#FFD53F"/>
</svg>
