<svg width="299" height="23" viewBox="0 0 299 23" fill="none" xmlns="http://www.w3.org/2000/svg">
<path d="M4.69406 17.14C3.40073 17.14 2.3474 16.8333 1.53406 16.22C0.734063 15.5933 0.334063 14.76 0.334063 13.72C0.334063 13.52 0.340729 13.3733 0.354063 13.28H2.15406C2.11406 13.9333 2.31406 14.4933 2.75406 14.96C3.19406 15.4267 3.8674 15.66 4.77406 15.66C5.68073 15.66 6.40073 15.4533 6.93406 15.04C7.4674 14.6267 7.73406 14.0467 7.73406 13.3C7.73406 12.8467 7.60073 12.4667 7.33406 12.16C7.08073 11.84 6.76073 11.58 6.37406 11.38C6.00073 11.1667 5.4874 10.9333 4.83406 10.68C4.03406 10.36 3.3874 10.06 2.89406 9.78C2.41406 9.5 2.0074 9.12 1.67406 8.64C1.34073 8.16 1.1874 7.55333 1.21406 6.82C1.21406 6.04667 1.42073 5.36 1.83406 4.76C2.2474 4.16 2.81406 3.7 3.53406 3.38C4.2674 3.04667 5.10073 2.88 6.03406 2.88C6.94073 2.88 7.72073 3.03333 8.37406 3.34C9.04073 3.64667 9.54073 4.07333 9.87406 4.62C10.2074 5.16667 10.3541 5.78 10.3141 6.46H8.41406C8.44073 6.11333 8.36073 5.78 8.17406 5.46C8.00073 5.14 7.72073 4.88 7.33406 4.68C6.96073 4.48 6.49406 4.38 5.93406 4.38C5.0674 4.38 4.3674 4.58667 3.83406 5C3.31406 5.4 3.05406 5.95333 3.05406 6.66C3.05406 7.07333 3.17406 7.43333 3.41406 7.74C3.6674 8.03333 3.98073 8.28667 4.35406 8.5C4.7274 8.7 5.24073 8.94 5.89406 9.22C6.68073 9.55333 7.32073 9.86667 7.81406 10.16C8.32073 10.44 8.7474 10.82 9.09406 11.3C9.44073 11.78 9.61406 12.38 9.61406 13.1C9.61406 13.8733 9.41406 14.5667 9.01406 15.18C8.61406 15.78 8.04073 16.26 7.29406 16.62C6.5474 16.9667 5.68073 17.14 4.69406 17.14ZM14.3347 14C14.2947 14.2 14.2747 14.3733 14.2747 14.52C14.2747 14.8533 14.3747 15.0933 14.5747 15.24C14.788 15.3867 15.128 15.46 15.5947 15.46H16.9347L16.6547 17H15.0147C14.148 17 13.4947 16.8333 13.0547 16.5C12.628 16.1667 12.4147 15.62 12.4147 14.86C12.4147 14.5667 12.4414 14.28 12.4947 14L13.6347 7.54H12.2347L12.4947 6.04H13.9147L14.3947 3.28H16.2347L15.7547 6.04H18.5947L18.3347 7.54H15.4747L14.3347 14ZM19.1398 11.48C19.3398 10.36 19.7398 9.38 20.3398 8.54C20.9532 7.68667 21.6932 7.02667 22.5598 6.56C23.4398 6.09333 24.3732 5.86 25.3598 5.86C26.3198 5.86 27.1132 6.06667 27.7398 6.48C28.3665 6.89333 28.7998 7.41333 29.0398 8.04L29.3998 6.04H31.2398L29.2998 17H27.4598L27.8398 14.96C27.3598 15.6 26.7265 16.1333 25.9398 16.56C25.1532 16.9733 24.2865 17.18 23.3398 17.18C22.4865 17.18 21.7332 17 21.0798 16.64C20.4265 16.2667 19.9198 15.74 19.5598 15.06C19.1998 14.38 19.0198 13.5933 19.0198 12.7C19.0198 12.3 19.0598 11.8933 19.1398 11.48ZM28.4398 11.5C28.4932 11.22 28.5198 10.92 28.5198 10.6C28.5198 9.62667 28.2265 8.86 27.6398 8.3C27.0665 7.72667 26.3332 7.44 25.4398 7.44C24.7598 7.44 24.1065 7.6 23.4798 7.92C22.8665 8.24 22.3398 8.70667 21.8998 9.32C21.4598 9.93333 21.1665 10.6533 21.0198 11.48C20.9665 11.76 20.9398 12.0667 20.9398 12.4C20.9398 13.3867 21.2265 14.1667 21.7998 14.74C22.3732 15.3 23.1065 15.58 23.9998 15.58C24.6798 15.58 25.3265 15.42 25.9398 15.1C26.5665 14.7667 27.0998 14.2933 27.5398 13.68C27.9932 13.0533 28.2932 12.3267 28.4398 11.5ZM35.7755 8.12C36.2155 7.4 36.7688 6.84 37.4355 6.44C38.1021 6.04 38.8621 5.84 39.7155 5.84L39.3755 7.72H38.8955C37.9488 7.72 37.1555 7.97333 36.5155 8.48C35.8888 8.98667 35.4688 9.84 35.2555 11.04L34.1955 17H32.3755L34.3155 6.04H36.1355L35.7755 8.12ZM42.5964 14C42.5564 14.2 42.5364 14.3733 42.5364 14.52C42.5364 14.8533 42.6364 15.0933 42.8364 15.24C43.0497 15.3867 43.3897 15.46 43.8564 15.46H45.1964L44.9164 17H43.2764C42.4097 17 41.7564 16.8333 41.3164 16.5C40.8897 16.1667 40.6764 15.62 40.6764 14.86C40.6764 14.5667 40.7031 14.28 40.7564 14L41.8964 7.54H40.4964L40.7564 6.04H42.1764L42.6564 3.28H44.4964L44.0164 6.04H46.8564L46.5964 7.54H43.7364L42.5964 14ZM69.6186 6.04L64.2586 17H62.3786L61.2986 8.28L57.0986 17H55.2186L53.7186 6.04H55.5786L56.4786 15.24L60.7986 6.04H62.6786L63.7186 15.18L67.8186 6.04H69.6186ZM69.7648 11.48C69.9648 10.36 70.3648 9.38 70.9648 8.54C71.5782 7.68667 72.3182 7.02667 73.1848 6.56C74.0648 6.09333 74.9982 5.86 75.9848 5.86C76.9448 5.86 77.7382 6.06667 78.3648 6.48C78.9915 6.89333 79.4248 7.41333 79.6648 8.04L80.0248 6.04H81.8648L79.9248 17H78.0848L78.4648 14.96C77.9848 15.6 77.3515 16.1333 76.5648 16.56C75.7782 16.9733 74.9115 17.18 73.9648 17.18C73.1115 17.18 72.3582 17 71.7048 16.64C71.0515 16.2667 70.5448 15.74 70.1848 15.06C69.8248 14.38 69.6448 13.5933 69.6448 12.7C69.6448 12.3 69.6848 11.8933 69.7648 11.48ZM79.0648 11.5C79.1182 11.22 79.1448 10.92 79.1448 10.6C79.1448 9.62667 78.8515 8.86 78.2648 8.3C77.6915 7.72667 76.9582 7.44 76.0648 7.44C75.3848 7.44 74.7315 7.6 74.1048 7.92C73.4915 8.24 72.9648 8.70667 72.5248 9.32C72.0848 9.93333 71.7915 10.6533 71.6448 11.48C71.5915 11.76 71.5648 12.0667 71.5648 12.4C71.5648 13.3867 71.8515 14.1667 72.4248 14.74C72.9982 15.3 73.7315 15.58 74.6248 15.58C75.3048 15.58 75.9515 15.42 76.5648 15.1C77.1915 14.7667 77.7248 14.2933 78.1648 13.68C78.6182 13.0533 78.9182 12.3267 79.0648 11.5ZM85.7605 14C85.7205 14.2 85.7005 14.3733 85.7005 14.52C85.7005 14.8533 85.8005 15.0933 86.0005 15.24C86.2138 15.3867 86.5538 15.46 87.0205 15.46H88.3605L88.0805 17H86.4405C85.5738 17 84.9205 16.8333 84.4805 16.5C84.0538 16.1667 83.8405 15.62 83.8405 14.86C83.8405 14.5667 83.8671 14.28 83.9205 14L85.0605 7.54H83.6605L83.9205 6.04H85.3405L85.8205 3.28H87.6605L87.1805 6.04H90.0205L89.7605 7.54H86.9005L85.7605 14ZM90.5656 11.5C90.7656 10.3667 91.1656 9.38 91.7656 8.54C92.379 7.68667 93.1323 7.02667 94.0256 6.56C94.919 6.09333 95.8856 5.86 96.9256 5.86C98.2723 5.86 99.319 6.18667 100.066 6.84C100.826 7.49333 101.246 8.4 101.326 9.56H99.3656C99.299 8.89333 99.0256 8.36667 98.5456 7.98C98.079 7.59333 97.4456 7.4 96.6456 7.4C95.6056 7.4 94.699 7.76 93.9256 8.48C93.1656 9.18667 92.6723 10.1933 92.4456 11.5C92.379 11.94 92.3456 12.3067 92.3456 12.6C92.3456 13.5733 92.6056 14.3267 93.1256 14.86C93.6456 15.38 94.339 15.64 95.2056 15.64C96.0056 15.64 96.699 15.4533 97.2856 15.08C97.8856 14.7067 98.3456 14.1733 98.6656 13.48H100.626C100.146 14.6 99.4056 15.5 98.4056 16.18C97.4056 16.8467 96.2456 17.18 94.9256 17.18C93.5523 17.18 92.459 16.7867 91.6456 16C90.8456 15.2133 90.4456 14.14 90.4456 12.78C90.4456 12.3667 90.4856 11.94 90.5656 11.5ZM109.854 5.84C110.947 5.84 111.827 6.14667 112.494 6.76C113.161 7.36 113.494 8.23333 113.494 9.38C113.494 9.80667 113.461 10.1933 113.394 10.54L112.254 17H110.454L111.554 10.8C111.607 10.52 111.634 10.2267 111.634 9.92C111.634 9.10667 111.407 8.48667 110.954 8.06C110.514 7.63333 109.894 7.42 109.094 7.42C108.134 7.42 107.314 7.72 106.634 8.32C105.967 8.92 105.534 9.79333 105.334 10.94V10.9L104.254 17H102.434L105.054 2.2H106.874L105.914 7.62C106.367 7.06 106.941 6.62667 107.634 6.32C108.341 6 109.081 5.84 109.854 5.84ZM118.407 4.26C118.114 4.26 117.867 4.16667 117.667 3.98C117.48 3.78 117.387 3.53333 117.387 3.24C117.387 2.84 117.534 2.5 117.827 2.22C118.12 1.92667 118.46 1.78 118.847 1.78C119.154 1.78 119.4 1.87333 119.587 2.06C119.774 2.24667 119.867 2.49333 119.867 2.8C119.867 3.2 119.72 3.54667 119.427 3.84C119.134 4.12 118.794 4.26 118.407 4.26ZM118.987 6.04L117.047 17H115.227L117.167 6.04H118.987ZM127.469 5.84C128.602 5.84 129.509 6.14667 130.189 6.76C130.869 7.36 131.209 8.24 131.209 9.4C131.209 9.82667 131.176 10.2067 131.109 10.54L129.969 17H128.169L129.269 10.8C129.322 10.52 129.349 10.2267 129.349 9.92C129.349 9.10667 129.122 8.48667 128.669 8.06C128.229 7.63333 127.609 7.42 126.809 7.42C125.849 7.42 125.029 7.72 124.349 8.32C123.682 8.92 123.249 9.79333 123.049 10.94V10.9L121.969 17H120.149L122.089 6.04H123.909L123.629 7.62C124.082 7.04667 124.649 6.60667 125.329 6.3C126.009 5.99333 126.722 5.84 127.469 5.84ZM139.442 5.86C140.389 5.86 141.182 6.06667 141.822 6.48C142.462 6.89333 142.895 7.41333 143.122 8.04L143.482 6.04H145.322L143.342 17.24C143.169 18.24 142.795 19.1267 142.222 19.9C141.662 20.6867 140.949 21.3 140.082 21.74C139.215 22.18 138.255 22.4 137.202 22.4C135.762 22.4 134.622 22.0533 133.782 21.36C132.942 20.68 132.535 19.76 132.562 18.6H134.382C134.462 19.2667 134.775 19.8 135.322 20.2C135.882 20.6133 136.602 20.82 137.482 20.82C138.482 20.82 139.355 20.5067 140.102 19.88C140.849 19.2533 141.322 18.3733 141.522 17.24L141.922 14.94C141.442 15.58 140.809 16.1133 140.022 16.54C139.249 16.9667 138.389 17.18 137.442 17.18C136.589 17.18 135.835 17 135.182 16.64C134.529 16.2667 134.015 15.74 133.642 15.06C133.282 14.38 133.102 13.5933 133.102 12.7C133.102 12.3 133.142 11.8933 133.222 11.48C133.422 10.36 133.822 9.38 134.422 8.54C135.035 7.68667 135.775 7.02667 136.642 6.56C137.522 6.09333 138.455 5.86 139.442 5.86ZM142.522 11.5C142.575 11.22 142.602 10.92 142.602 10.6C142.602 9.62667 142.309 8.86 141.722 8.3C141.149 7.72667 140.415 7.44 139.522 7.44C138.842 7.44 138.189 7.6 137.562 7.92C136.949 8.24 136.422 8.70667 135.982 9.32C135.542 9.93333 135.249 10.6533 135.102 11.48C135.049 11.76 135.022 12.0667 135.022 12.4C135.022 13.3867 135.309 14.1667 135.882 14.74C136.455 15.3 137.189 15.58 138.082 15.58C138.762 15.58 139.409 15.42 140.022 15.1C140.649 14.7667 141.182 14.2933 141.622 13.68C142.075 13.0533 142.375 12.3267 142.522 11.5ZM148.778 14.48L145.597 19.86H144.377L146.778 14.48H148.778ZM161.639 17.16C160.666 17.16 159.799 16.9933 159.039 16.66C158.279 16.3267 157.679 15.8733 157.239 15.3C156.799 14.7133 156.553 14.06 156.499 13.34H159.879C159.919 13.7267 160.099 14.04 160.419 14.28C160.739 14.52 161.133 14.64 161.599 14.64C162.026 14.64 162.353 14.56 162.579 14.4C162.819 14.2267 162.939 14.0067 162.939 13.74C162.939 13.42 162.773 13.1867 162.439 13.04C162.106 12.88 161.566 12.7067 160.819 12.52C160.019 12.3333 159.353 12.14 158.819 11.94C158.286 11.7267 157.826 11.4 157.439 10.96C157.053 10.5067 156.859 9.9 156.859 9.14C156.859 8.5 157.033 7.92 157.379 7.4C157.739 6.86667 158.259 6.44667 158.939 6.14C159.633 5.83333 160.453 5.68 161.399 5.68C162.799 5.68 163.899 6.02667 164.699 6.72C165.513 7.41333 165.979 8.33333 166.099 9.48H162.939C162.886 9.09333 162.713 8.78667 162.419 8.56C162.139 8.33333 161.766 8.22 161.299 8.22C160.899 8.22 160.593 8.3 160.379 8.46C160.166 8.60667 160.059 8.81333 160.059 9.08C160.059 9.4 160.226 9.64 160.559 9.8C160.906 9.96 161.439 10.12 162.159 10.28C162.986 10.4933 163.659 10.7067 164.179 10.92C164.699 11.12 165.153 11.4533 165.539 11.92C165.939 12.3733 166.146 12.9867 166.159 13.76C166.159 14.4133 165.973 15 165.599 15.52C165.239 16.0267 164.713 16.4267 164.019 16.72C163.339 17.0133 162.546 17.16 161.639 17.16ZM174.472 14.1V17H172.732C171.492 17 170.525 16.7 169.832 16.1C169.138 15.4867 168.792 14.4933 168.792 13.12V8.68H167.432V5.84H168.792V3.12H172.212V5.84H174.452V8.68H172.212V13.16C172.212 13.4933 172.292 13.7333 172.452 13.88C172.612 14.0267 172.878 14.1 173.252 14.1H174.472ZM175.697 11.4C175.697 10.2533 175.91 9.24667 176.337 8.38C176.777 7.51333 177.37 6.84667 178.117 6.38C178.863 5.91333 179.697 5.68 180.617 5.68C181.403 5.68 182.09 5.84 182.677 6.16C183.277 6.48 183.737 6.9 184.057 7.42V5.84H187.477V17H184.057V15.42C183.723 15.94 183.257 16.36 182.657 16.68C182.07 17 181.383 17.16 180.597 17.16C179.69 17.16 178.863 16.9267 178.117 16.46C177.37 15.98 176.777 15.3067 176.337 14.44C175.91 13.56 175.697 12.5467 175.697 11.4ZM184.057 11.42C184.057 10.5667 183.817 9.89333 183.337 9.4C182.87 8.90667 182.297 8.66 181.617 8.66C180.937 8.66 180.357 8.90667 179.877 9.4C179.41 9.88 179.177 10.5467 179.177 11.4C179.177 12.2533 179.41 12.9333 179.877 13.44C180.357 13.9333 180.937 14.18 181.617 14.18C182.297 14.18 182.87 13.9333 183.337 13.44C183.817 12.9467 184.057 12.2733 184.057 11.42ZM193.371 7.7C193.771 7.08667 194.271 6.60667 194.871 6.26C195.471 5.9 196.138 5.72 196.871 5.72V9.34H195.931C195.078 9.34 194.438 9.52667 194.011 9.9C193.584 10.26 193.371 10.9 193.371 11.82V17H189.951V5.84H193.371V7.7ZM204.726 14.1V17H202.986C201.746 17 200.779 16.7 200.086 16.1C199.392 15.4867 199.046 14.4933 199.046 13.12V8.68H197.686V5.84H199.046V3.12H202.466V5.84H204.706V8.68H202.466V13.16C202.466 13.4933 202.546 13.7333 202.706 13.88C202.866 14.0267 203.132 14.1 203.506 14.1H204.726ZM226.889 5.84L223.869 17H220.089L218.329 9.76L216.509 17H212.749L209.709 5.84H213.129L214.709 13.82L216.589 5.84H220.209L222.109 13.78L223.669 5.84H226.889ZM229.913 4.68C229.313 4.68 228.82 4.50667 228.433 4.16C228.06 3.8 227.873 3.36 227.873 2.84C227.873 2.30667 228.06 1.86667 228.433 1.52C228.82 1.16 229.313 0.979999 229.913 0.979999C230.5 0.979999 230.98 1.16 231.353 1.52C231.74 1.86667 231.933 2.30667 231.933 2.84C231.933 3.36 231.74 3.8 231.353 4.16C230.98 4.50667 230.5 4.68 229.913 4.68ZM231.613 5.84V17H228.193V5.84H231.613ZM240.892 5.72C242.198 5.72 243.238 6.14667 244.012 7C244.798 7.84 245.192 9 245.192 10.48V17H241.792V10.94C241.792 10.1933 241.598 9.61333 241.212 9.2C240.825 8.78667 240.305 8.58 239.652 8.58C238.998 8.58 238.478 8.78667 238.092 9.2C237.705 9.61333 237.512 10.1933 237.512 10.94V17H234.092V5.84H237.512V7.32C237.858 6.82667 238.325 6.44 238.912 6.16C239.498 5.86667 240.158 5.72 240.892 5.72ZM254.368 5.72C255.675 5.72 256.715 6.14667 257.488 7C258.275 7.84 258.668 9 258.668 10.48V17H255.268V10.94C255.268 10.1933 255.075 9.61333 254.688 9.2C254.301 8.78667 253.781 8.58 253.128 8.58C252.475 8.58 251.955 8.78667 251.568 9.2C251.181 9.61333 250.988 10.1933 250.988 10.94V17H247.568V5.84H250.988V7.32C251.335 6.82667 251.801 6.44 252.388 6.16C252.975 5.86667 253.635 5.72 254.368 5.72ZM262.765 4.68C262.165 4.68 261.671 4.50667 261.285 4.16C260.911 3.8 260.725 3.36 260.725 2.84C260.725 2.30667 260.911 1.86667 261.285 1.52C261.671 1.16 262.165 0.979999 262.765 0.979999C263.351 0.979999 263.831 1.16 264.205 1.52C264.591 1.86667 264.785 2.30667 264.785 2.84C264.785 3.36 264.591 3.8 264.205 4.16C263.831 4.50667 263.351 4.68 262.765 4.68ZM264.465 5.84V17H261.045V5.84H264.465ZM273.743 5.72C275.05 5.72 276.09 6.14667 276.863 7C277.65 7.84 278.043 9 278.043 10.48V17H274.643V10.94C274.643 10.1933 274.45 9.61333 274.063 9.2C273.676 8.78667 273.156 8.58 272.503 8.58C271.85 8.58 271.33 8.78667 270.943 9.2C270.556 9.61333 270.363 10.1933 270.363 10.94V17H266.943V5.84H270.363V7.32C270.71 6.82667 271.176 6.44 271.763 6.16C272.35 5.86667 273.01 5.72 273.743 5.72ZM284.66 5.68C285.446 5.68 286.133 5.84 286.72 6.16C287.32 6.48 287.78 6.9 288.1 7.42V5.84H291.52V16.98C291.52 18.0067 291.313 18.9333 290.9 19.76C290.5 20.6 289.88 21.2667 289.04 21.76C288.213 22.2533 287.18 22.5 285.94 22.5C284.286 22.5 282.946 22.1067 281.92 21.32C280.893 20.5467 280.306 19.4933 280.16 18.16H283.54C283.646 18.5867 283.9 18.92 284.3 19.16C284.7 19.4133 285.193 19.54 285.78 19.54C286.486 19.54 287.046 19.3333 287.46 18.92C287.886 18.52 288.1 17.8733 288.1 16.98V15.4C287.766 15.92 287.306 16.3467 286.72 16.68C286.133 17 285.446 17.16 284.66 17.16C283.74 17.16 282.906 16.9267 282.16 16.46C281.413 15.98 280.82 15.3067 280.38 14.44C279.953 13.56 279.74 12.5467 279.74 11.4C279.74 10.2533 279.953 9.24667 280.38 8.38C280.82 7.51333 281.413 6.84667 282.16 6.38C282.906 5.91333 283.74 5.68 284.66 5.68ZM288.1 11.42C288.1 10.5667 287.86 9.89333 287.38 9.4C286.913 8.90667 286.34 8.66 285.66 8.66C284.98 8.66 284.4 8.90667 283.92 9.4C283.453 9.88 283.22 10.5467 283.22 11.4C283.22 12.2533 283.453 12.9333 283.92 13.44C284.4 13.9333 284.98 14.18 285.66 14.18C286.34 14.18 286.913 13.9333 287.38 13.44C287.86 12.9467 288.1 12.2733 288.1 11.42ZM298.494 2.46L298.094 12.04H295.194L294.794 2.46H298.494ZM296.694 17.16C296.094 17.16 295.601 16.9867 295.214 16.64C294.841 16.28 294.654 15.84 294.654 15.32C294.654 14.7867 294.841 14.34 295.214 13.98C295.601 13.62 296.094 13.44 296.694 13.44C297.281 13.44 297.761 13.62 298.134 13.98C298.521 14.34 298.714 14.7867 298.714 15.32C298.714 15.84 298.521 16.28 298.134 16.64C297.761 16.9867 297.281 17.16 296.694 17.16Z" fill="#FFD63E"/>
</svg>
