<svg width="207" height="43" viewBox="0 0 207 43" fill="none" xmlns="http://www.w3.org/2000/svg">
<path d="M11.9657 1.768L7.98169 13H4.55769L0.573688 1.768H3.48569L6.26969 10.248L9.06969 1.768H11.9657ZM21.5252 8.392C21.5252 8.648 21.5092 8.91467 21.4772 9.192H15.2852C15.3279 9.74667 15.5039 10.1733 15.8132 10.472C16.1332 10.76 16.5225 10.904 16.9812 10.904C17.6639 10.904 18.1385 10.616 18.4052 10.04H21.3172C21.1679 10.6267 20.8959 11.1547 20.5012 11.624C20.1172 12.0933 19.6319 12.4613 19.0452 12.728C18.4585 12.9947 17.8025 13.128 17.0772 13.128C16.2025 13.128 15.4239 12.9413 14.7412 12.568C14.0585 12.1947 13.5252 11.6613 13.1412 10.968C12.7572 10.2747 12.5652 9.464 12.5652 8.536C12.5652 7.608 12.7519 6.79733 13.1252 6.104C13.5092 5.41067 14.0425 4.87733 14.7252 4.504C15.4079 4.13067 16.1919 3.944 17.0772 3.944C17.9412 3.944 18.7092 4.12533 19.3812 4.488C20.0532 4.85067 20.5759 5.368 20.9492 6.04C21.3332 6.712 21.5252 7.496 21.5252 8.392ZM18.7252 7.672C18.7252 7.20267 18.5652 6.82933 18.2452 6.552C17.9252 6.27467 17.5252 6.136 17.0452 6.136C16.5865 6.136 16.1972 6.26933 15.8772 6.536C15.5679 6.80267 15.3759 7.18133 15.3012 7.672H18.7252ZM25.7046 5.56C26.0246 5.06933 26.4246 4.68533 26.9046 4.408C27.3846 4.12 27.9179 3.976 28.5046 3.976V6.872H27.7526C27.0699 6.872 26.5579 7.02133 26.2166 7.32C25.8752 7.608 25.7046 8.12 25.7046 8.856V13H22.9686V4.072H25.7046V5.56ZM31.1883 3.144C30.7083 3.144 30.3136 3.00533 30.0043 2.728C29.7056 2.44 29.5563 2.088 29.5563 1.672C29.5563 1.24533 29.7056 0.893333 30.0043 0.615999C30.3136 0.327999 30.7083 0.183999 31.1883 0.183999C31.6576 0.183999 32.0416 0.327999 32.3403 0.615999C32.6496 0.893333 32.8043 1.24533 32.8043 1.672C32.8043 2.088 32.6496 2.44 32.3403 2.728C32.0416 3.00533 31.6576 3.144 31.1883 3.144ZM32.5483 4.072V13H29.8123V4.072H32.5483ZM39.0111 6.344H37.5391V13H34.8031V6.344H33.8111V4.072H34.8031V3.816C34.8031 2.71733 35.1177 1.88533 35.7471 1.32C36.3764 0.743999 37.2991 0.455999 38.5151 0.455999C38.7177 0.455999 38.8671 0.461333 38.9631 0.471999V2.792C38.4404 2.76 38.0724 2.83467 37.8591 3.016C37.6457 3.19733 37.5391 3.52267 37.5391 3.992V4.072H39.0111V6.344ZM49.4167 4.072L43.8167 17.24H40.8727L42.9207 12.696L39.2887 4.072H42.3447L44.4087 9.656L46.4567 4.072H49.4167ZM58.7727 10.68V13H57.3807C56.3887 13 55.6154 12.76 55.0607 12.28C54.506 11.7893 54.2287 10.9947 54.2287 9.896V6.344H53.1407V4.072H54.2287V1.896H56.9647V4.072H58.7567V6.344H56.9647V9.928C56.9647 10.1947 57.0287 10.3867 57.1567 10.504C57.2847 10.6213 57.498 10.68 57.7967 10.68H58.7727ZM65.7847 3.976C66.8087 3.976 67.63 4.31733 68.2487 5C68.8674 5.672 69.1767 6.6 69.1767 7.784V13H66.4567V8.152C66.4567 7.55467 66.302 7.09067 65.9927 6.76C65.6834 6.42933 65.2674 6.264 64.7447 6.264C64.222 6.264 63.806 6.42933 63.4967 6.76C63.1874 7.09067 63.0327 7.55467 63.0327 8.152V13H60.2967V1.16H63.0327V5.272C63.31 4.87733 63.6887 4.56267 64.1687 4.328C64.6487 4.09333 65.1874 3.976 65.7847 3.976ZM70.5339 8.52C70.5339 7.60267 70.7046 6.79733 71.0459 6.104C71.3979 5.41067 71.8726 4.87733 72.4699 4.504C73.0673 4.13067 73.7339 3.944 74.4699 3.944C75.0993 3.944 75.6486 4.072 76.1179 4.328C76.5979 4.584 76.9659 4.92 77.2219 5.336V4.072H79.9579V13H77.2219V11.736C76.9553 12.152 76.5819 12.488 76.1019 12.744C75.6326 13 75.0833 13.128 74.4539 13.128C73.7286 13.128 73.0673 12.9413 72.4699 12.568C71.8726 12.184 71.3979 11.6453 71.0459 10.952C70.7046 10.248 70.5339 9.43733 70.5339 8.52ZM77.2219 8.536C77.2219 7.85333 77.0299 7.31467 76.6459 6.92C76.2726 6.52533 75.8139 6.328 75.2699 6.328C74.7259 6.328 74.2619 6.52533 73.8779 6.92C73.5046 7.304 73.3179 7.83733 73.3179 8.52C73.3179 9.20267 73.5046 9.74667 73.8779 10.152C74.2619 10.5467 74.7259 10.744 75.2699 10.744C75.8139 10.744 76.2726 10.5467 76.6459 10.152C77.0299 9.75733 77.2219 9.21867 77.2219 8.536ZM86.9133 10.68V13H85.5213C84.5293 13 83.756 12.76 83.2013 12.28C82.6466 11.7893 82.3693 10.9947 82.3693 9.896V6.344H81.2813V4.072H82.3693V1.896H85.1053V4.072H86.8973V6.344H85.1053V9.928C85.1053 10.1947 85.1693 10.3867 85.2973 10.504C85.4253 10.6213 85.6386 10.68 85.9373 10.68H86.9133ZM100.948 4.072L95.3479 17.24H92.4039L94.4519 12.696L90.8199 4.072H93.8759L95.9399 9.656L97.9879 4.072H100.948ZM106.001 13.128C105.127 13.128 104.337 12.9413 103.633 12.568C102.94 12.1947 102.391 11.6613 101.985 10.968C101.591 10.2747 101.393 9.464 101.393 8.536C101.393 7.61867 101.596 6.81333 102.001 6.12C102.407 5.416 102.961 4.87733 103.665 4.504C104.369 4.13067 105.159 3.944 106.033 3.944C106.908 3.944 107.697 4.13067 108.401 4.504C109.105 4.87733 109.66 5.416 110.065 6.12C110.471 6.81333 110.673 7.61867 110.673 8.536C110.673 9.45333 110.465 10.264 110.049 10.968C109.644 11.6613 109.084 12.1947 108.369 12.568C107.665 12.9413 106.876 13.128 106.001 13.128ZM106.001 10.76C106.524 10.76 106.967 10.568 107.329 10.184C107.703 9.8 107.889 9.25067 107.889 8.536C107.889 7.82133 107.708 7.272 107.345 6.888C106.993 6.504 106.556 6.312 106.033 6.312C105.5 6.312 105.057 6.504 104.705 6.888C104.353 7.26133 104.177 7.81067 104.177 8.536C104.177 9.25067 104.348 9.8 104.689 10.184C105.041 10.568 105.479 10.76 106.001 10.76ZM120.941 4.072V13H118.205V11.784C117.927 12.1787 117.549 12.4987 117.069 12.744C116.599 12.9787 116.077 13.096 115.501 13.096C114.818 13.096 114.215 12.9467 113.693 12.648C113.17 12.3387 112.765 11.896 112.477 11.32C112.189 10.744 112.045 10.0667 112.045 9.288V4.072H114.765V8.92C114.765 9.51733 114.919 9.98133 115.229 10.312C115.538 10.6427 115.954 10.808 116.477 10.808C117.01 10.808 117.431 10.6427 117.741 10.312C118.05 9.98133 118.205 9.51733 118.205 8.92V4.072H120.941ZM123.53 1.768H126.33L124.538 6.056H122.698L123.53 1.768ZM130.673 5.56C130.993 5.06933 131.393 4.68533 131.873 4.408C132.353 4.12 132.887 3.976 133.473 3.976V6.872H132.721C132.039 6.872 131.527 7.02133 131.185 7.32C130.844 7.608 130.673 8.12 130.673 8.856V13H127.937V4.072H130.673V5.56ZM143.197 8.392C143.197 8.648 143.181 8.91467 143.149 9.192H136.957C137 9.74667 137.176 10.1733 137.485 10.472C137.805 10.76 138.194 10.904 138.653 10.904C139.336 10.904 139.81 10.616 140.077 10.04H142.989C142.84 10.6267 142.568 11.1547 142.173 11.624C141.789 12.0933 141.304 12.4613 140.717 12.728C140.13 12.9947 139.474 13.128 138.749 13.128C137.874 13.128 137.096 12.9413 136.413 12.568C135.73 12.1947 135.197 11.6613 134.813 10.968C134.429 10.2747 134.237 9.464 134.237 8.536C134.237 7.608 134.424 6.79733 134.797 6.104C135.181 5.41067 135.714 4.87733 136.397 4.504C137.08 4.13067 137.864 3.944 138.749 3.944C139.613 3.944 140.381 4.12533 141.053 4.488C141.725 4.85067 142.248 5.368 142.621 6.04C143.005 6.712 143.197 7.496 143.197 8.392ZM140.397 7.672C140.397 7.20267 140.237 6.82933 139.917 6.552C139.597 6.27467 139.197 6.136 138.717 6.136C138.258 6.136 137.869 6.26933 137.549 6.536C137.24 6.80267 137.048 7.18133 136.973 7.672H140.397ZM153.519 3.976C154.543 3.976 155.364 4.31733 155.983 5C156.602 5.672 156.911 6.6 156.911 7.784V13H154.191V8.152C154.191 7.55467 154.036 7.09067 153.727 6.76C153.418 6.42933 153.002 6.264 152.479 6.264C151.956 6.264 151.54 6.42933 151.231 6.76C150.922 7.09067 150.767 7.55467 150.767 8.152V13H148.031V1.16H150.767V5.272C151.044 4.87733 151.423 4.56267 151.903 4.328C152.383 4.09333 152.922 3.976 153.519 3.976ZM167.628 4.072V13H164.892V11.784C164.615 12.1787 164.236 12.4987 163.756 12.744C163.287 12.9787 162.764 13.096 162.188 13.096C161.506 13.096 160.903 12.9467 160.38 12.648C159.858 12.3387 159.452 11.896 159.164 11.32C158.876 10.744 158.732 10.0667 158.732 9.288V4.072H161.452V8.92C161.452 9.51733 161.607 9.98133 161.916 10.312C162.226 10.6427 162.642 10.808 163.164 10.808C163.698 10.808 164.119 10.6427 164.428 10.312C164.738 9.98133 164.892 9.51733 164.892 8.92V4.072H167.628ZM180.986 3.976C182.095 3.976 182.975 4.312 183.626 4.984C184.287 5.656 184.618 6.58933 184.618 7.784V13H181.898V8.152C181.898 7.576 181.743 7.13333 181.434 6.824C181.135 6.504 180.719 6.344 180.186 6.344C179.652 6.344 179.231 6.504 178.922 6.824C178.623 7.13333 178.474 7.576 178.474 8.152V13H175.754V8.152C175.754 7.576 175.599 7.13333 175.29 6.824C174.991 6.504 174.575 6.344 174.042 6.344C173.508 6.344 173.087 6.504 172.778 6.824C172.479 7.13333 172.33 7.576 172.33 8.152V13H169.594V4.072H172.33V5.192C172.607 4.81867 172.97 4.52533 173.418 4.312C173.866 4.088 174.372 3.976 174.938 3.976C175.61 3.976 176.207 4.12 176.73 4.408C177.263 4.696 177.679 5.10667 177.978 5.64C178.287 5.14933 178.708 4.74933 179.242 4.44C179.775 4.13067 180.356 3.976 180.986 3.976ZM185.987 8.52C185.987 7.60267 186.158 6.79733 186.499 6.104C186.851 5.41067 187.326 4.87733 187.923 4.504C188.52 4.13067 189.187 3.944 189.923 3.944C190.552 3.944 191.102 4.072 191.571 4.328C192.051 4.584 192.419 4.92 192.675 5.336V4.072H195.411V13H192.675V11.736C192.408 12.152 192.035 12.488 191.555 12.744C191.086 13 190.536 13.128 189.907 13.128C189.182 13.128 188.52 12.9413 187.923 12.568C187.326 12.184 186.851 11.6453 186.499 10.952C186.158 10.248 185.987 9.43733 185.987 8.52ZM192.675 8.536C192.675 7.85333 192.483 7.31467 192.099 6.92C191.726 6.52533 191.267 6.328 190.723 6.328C190.179 6.328 189.715 6.52533 189.331 6.92C188.958 7.304 188.771 7.83733 188.771 8.52C188.771 9.20267 188.958 9.74667 189.331 10.152C189.715 10.5467 190.179 10.744 190.723 10.744C191.267 10.744 191.726 10.5467 192.099 10.152C192.483 9.75733 192.675 9.21867 192.675 8.536ZM202.83 3.976C203.876 3.976 204.708 4.31733 205.326 5C205.956 5.672 206.27 6.6 206.27 7.784V13H203.55V8.152C203.55 7.55467 203.396 7.09067 203.086 6.76C202.777 6.42933 202.361 6.264 201.838 6.264C201.316 6.264 200.9 6.42933 200.59 6.76C200.281 7.09067 200.126 7.55467 200.126 8.152V13H197.39V4.072H200.126V5.256C200.404 4.86133 200.777 4.552 201.246 4.328C201.716 4.09333 202.244 3.976 202.83 3.976ZM52.1008 35.68V38H50.7088C49.7168 38 48.9435 37.76 48.3888 37.28C47.8341 36.7893 47.5568 35.9947 47.5568 34.896V31.344H46.4688V29.072H47.5568V26.896H50.2928V29.072H52.0848V31.344H50.2928V34.928C50.2928 35.1947 50.3568 35.3867 50.4848 35.504C50.6128 35.6213 50.8261 35.68 51.1248 35.68H52.1008ZM57.6888 38.128C56.8141 38.128 56.0248 37.9413 55.3208 37.568C54.6275 37.1947 54.0781 36.6613 53.6728 35.968C53.2781 35.2747 53.0808 34.464 53.0808 33.536C53.0808 32.6187 53.2835 31.8133 53.6888 31.12C54.0941 30.416 54.6488 29.8773 55.3528 29.504C56.0568 29.1307 56.8461 28.944 57.7208 28.944C58.5955 28.944 59.3848 29.1307 60.0888 29.504C60.7928 29.8773 61.3475 30.416 61.7528 31.12C62.1581 31.8133 62.3608 32.6187 62.3608 33.536C62.3608 34.4533 62.1528 35.264 61.7368 35.968C61.3315 36.6613 60.7715 37.1947 60.0568 37.568C59.3528 37.9413 58.5635 38.128 57.6888 38.128ZM57.6888 35.76C58.2115 35.76 58.6541 35.568 59.0168 35.184C59.3901 34.8 59.5768 34.2507 59.5768 33.536C59.5768 32.8213 59.3955 32.272 59.0328 31.888C58.6808 31.504 58.2435 31.312 57.7208 31.312C57.1875 31.312 56.7448 31.504 56.3928 31.888C56.0408 32.2613 55.8648 32.8107 55.8648 33.536C55.8648 34.2507 56.0355 34.8 56.3768 35.184C56.7288 35.568 57.1661 35.76 57.6888 35.76ZM70.5949 28.944C71.2243 28.944 71.7736 29.072 72.2429 29.328C72.7229 29.584 73.0909 29.92 73.3469 30.336V29.072H76.0829V37.984C76.0829 38.8053 75.9176 39.5467 75.5869 40.208C75.2669 40.88 74.7709 41.4133 74.0989 41.808C73.4376 42.2027 72.6109 42.4 71.6189 42.4C70.2963 42.4 69.2243 42.0853 68.4029 41.456C67.5816 40.8373 67.1123 39.9947 66.9949 38.928H69.6989C69.7843 39.2693 69.9869 39.536 70.3069 39.728C70.6269 39.9307 71.0216 40.032 71.4909 40.032C72.0563 40.032 72.5043 39.8667 72.8349 39.536C73.1763 39.216 73.3469 38.6987 73.3469 37.984V36.72C73.0803 37.136 72.7123 37.4773 72.2429 37.744C71.7736 38 71.2243 38.128 70.5949 38.128C69.8589 38.128 69.1923 37.9413 68.5949 37.568C67.9976 37.184 67.5229 36.6453 67.1709 35.952C66.8296 35.248 66.6589 34.4373 66.6589 33.52C66.6589 32.6027 66.8296 31.7973 67.1709 31.104C67.5229 30.4107 67.9976 29.8773 68.5949 29.504C69.1923 29.1307 69.8589 28.944 70.5949 28.944ZM73.3469 33.536C73.3469 32.8533 73.1549 32.3147 72.7709 31.92C72.3976 31.5253 71.9389 31.328 71.3949 31.328C70.8509 31.328 70.3869 31.5253 70.0029 31.92C69.6296 32.304 69.4429 32.8373 69.4429 33.52C69.4429 34.2027 69.6296 34.7467 70.0029 35.152C70.3869 35.5467 70.8509 35.744 71.3949 35.744C71.9389 35.744 72.3976 35.5467 72.7709 35.152C73.1549 34.7573 73.3469 34.2187 73.3469 33.536ZM86.4783 33.392C86.4783 33.648 86.4623 33.9147 86.4303 34.192H80.2383C80.281 34.7467 80.457 35.1733 80.7663 35.472C81.0863 35.76 81.4756 35.904 81.9343 35.904C82.617 35.904 83.0916 35.616 83.3583 35.04H86.2703C86.121 35.6267 85.849 36.1547 85.4543 36.624C85.0703 37.0933 84.585 37.4613 83.9983 37.728C83.4116 37.9947 82.7556 38.128 82.0303 38.128C81.1556 38.128 80.377 37.9413 79.6943 37.568C79.0116 37.1947 78.4783 36.6613 78.0943 35.968C77.7103 35.2747 77.5183 34.464 77.5183 33.536C77.5183 32.608 77.705 31.7973 78.0783 31.104C78.4623 30.4107 78.9956 29.8773 79.6783 29.504C80.361 29.1307 81.145 28.944 82.0303 28.944C82.8943 28.944 83.6623 29.1253 84.3343 29.488C85.0063 29.8507 85.529 30.368 85.9023 31.04C86.2863 31.712 86.4783 32.496 86.4783 33.392ZM83.6783 32.672C83.6783 32.2027 83.5183 31.8293 83.1983 31.552C82.8783 31.2747 82.4783 31.136 81.9983 31.136C81.5396 31.136 81.1503 31.2693 80.8303 31.536C80.521 31.8027 80.329 32.1813 80.2543 32.672H83.6783ZM92.8977 35.68V38H91.5057C90.5137 38 89.7404 37.76 89.1857 37.28C88.631 36.7893 88.3537 35.9947 88.3537 34.896V31.344H87.2657V29.072H88.3537V26.896H91.0897V29.072H92.8817V31.344H91.0897V34.928C91.0897 35.1947 91.1537 35.3867 91.2817 35.504C91.4097 35.6213 91.623 35.68 91.9217 35.68H92.8977ZM100.548 30.56C100.868 30.0693 101.268 29.6853 101.748 29.408C102.228 29.12 102.762 28.976 103.348 28.976V31.872H102.596C101.914 31.872 101.402 32.0213 101.06 32.32C100.719 32.608 100.548 33.12 100.548 33.856V38H97.8123V29.072H100.548V30.56ZM113.072 33.392C113.072 33.648 113.056 33.9147 113.024 34.192H106.832C106.875 34.7467 107.051 35.1733 107.36 35.472C107.68 35.76 108.069 35.904 108.528 35.904C109.211 35.904 109.685 35.616 109.952 35.04H112.864C112.715 35.6267 112.443 36.1547 112.048 36.624C111.664 37.0933 111.179 37.4613 110.592 37.728C110.005 37.9947 109.349 38.128 108.624 38.128C107.749 38.128 106.971 37.9413 106.288 37.568C105.605 37.1947 105.072 36.6613 104.688 35.968C104.304 35.2747 104.112 34.464 104.112 33.536C104.112 32.608 104.299 31.7973 104.672 31.104C105.056 30.4107 105.589 29.8773 106.272 29.504C106.955 29.1307 107.739 28.944 108.624 28.944C109.488 28.944 110.256 29.1253 110.928 29.488C111.6 29.8507 112.123 30.368 112.496 31.04C112.88 31.712 113.072 32.496 113.072 33.392ZM110.272 32.672C110.272 32.2027 110.112 31.8293 109.792 31.552C109.472 31.2747 109.072 31.136 108.592 31.136C108.133 31.136 107.744 31.2693 107.424 31.536C107.115 31.8027 106.923 32.1813 106.848 32.672H110.272ZM127.331 29.072L124.915 38H121.891L120.483 32.208L119.027 38H116.019L113.587 29.072H116.323L117.587 35.456L119.091 29.072H121.987L123.507 35.424L124.755 29.072H127.331ZM127.831 33.52C127.831 32.6027 128.001 31.7973 128.343 31.104C128.695 30.4107 129.169 29.8773 129.767 29.504C130.364 29.1307 131.031 28.944 131.767 28.944C132.396 28.944 132.945 29.072 133.415 29.328C133.895 29.584 134.263 29.92 134.519 30.336V29.072H137.255V38H134.519V36.736C134.252 37.152 133.879 37.488 133.399 37.744C132.929 38 132.38 38.128 131.751 38.128C131.025 38.128 130.364 37.9413 129.767 37.568C129.169 37.184 128.695 36.6453 128.343 35.952C128.001 35.248 127.831 34.4373 127.831 33.52ZM134.519 33.536C134.519 32.8533 134.327 32.3147 133.943 31.92C133.569 31.5253 133.111 31.328 132.567 31.328C132.023 31.328 131.559 31.5253 131.175 31.92C130.801 32.304 130.615 32.8373 130.615 33.52C130.615 34.2027 130.801 34.7467 131.175 35.152C131.559 35.5467 132.023 35.744 132.567 35.744C133.111 35.744 133.569 35.5467 133.943 35.152C134.327 34.7573 134.519 34.2187 134.519 33.536ZM141.97 30.56C142.29 30.0693 142.69 29.6853 143.17 29.408C143.65 29.12 144.184 28.976 144.77 28.976V31.872H144.018C143.336 31.872 142.824 32.0213 142.482 32.32C142.141 32.608 141.97 33.12 141.97 33.856V38H139.234V29.072H141.97V30.56ZM145.534 33.52C145.534 32.6027 145.705 31.7973 146.046 31.104C146.398 30.4107 146.873 29.8773 147.47 29.504C148.067 29.1307 148.734 28.944 149.47 28.944C150.057 28.944 150.59 29.0667 151.07 29.312C151.561 29.5573 151.945 29.888 152.222 30.304V26.16H154.958V38H152.222V36.72C151.966 37.1467 151.598 37.488 151.118 37.744C150.649 38 150.099 38.128 149.47 38.128C148.734 38.128 148.067 37.9413 147.47 37.568C146.873 37.184 146.398 36.6453 146.046 35.952C145.705 35.248 145.534 34.4373 145.534 33.52ZM152.222 33.536C152.222 32.8533 152.03 32.3147 151.646 31.92C151.273 31.5253 150.814 31.328 150.27 31.328C149.726 31.328 149.262 31.5253 148.878 31.92C148.505 32.304 148.318 32.8373 148.318 33.52C148.318 34.2027 148.505 34.7467 148.878 35.152C149.262 35.5467 149.726 35.744 150.27 35.744C150.814 35.744 151.273 35.5467 151.646 35.152C152.03 34.7573 152.222 34.2187 152.222 33.536ZM160.569 38.128C159.791 38.128 159.097 37.9947 158.489 37.728C157.881 37.4613 157.401 37.0987 157.049 36.64C156.697 36.1707 156.5 35.648 156.457 35.072H159.161C159.193 35.3813 159.337 35.632 159.593 35.824C159.849 36.016 160.164 36.112 160.537 36.112C160.879 36.112 161.14 36.048 161.321 35.92C161.513 35.7813 161.609 35.6053 161.609 35.392C161.609 35.136 161.476 34.9493 161.209 34.832C160.943 34.704 160.511 34.5653 159.913 34.416C159.273 34.2667 158.74 34.112 158.313 33.952C157.887 33.7813 157.519 33.52 157.209 33.168C156.9 32.8053 156.745 32.32 156.745 31.712C156.745 31.2 156.884 30.736 157.161 30.32C157.449 29.8933 157.865 29.5573 158.409 29.312C158.964 29.0667 159.62 28.944 160.377 28.944C161.497 28.944 162.377 29.2213 163.017 29.776C163.668 30.3307 164.041 31.0667 164.137 31.984H161.609C161.567 31.6747 161.428 31.4293 161.193 31.248C160.969 31.0667 160.671 30.976 160.297 30.976C159.977 30.976 159.732 31.04 159.561 31.168C159.391 31.2853 159.305 31.4507 159.305 31.664C159.305 31.92 159.439 32.112 159.705 32.24C159.983 32.368 160.409 32.496 160.985 32.624C161.647 32.7947 162.185 32.9653 162.601 33.136C163.017 33.296 163.38 33.5627 163.689 33.936C164.009 34.2987 164.175 34.7893 164.185 35.408C164.185 35.9307 164.036 36.4 163.737 36.816C163.449 37.2213 163.028 37.5413 162.473 37.776C161.929 38.0107 161.295 38.128 160.569 38.128Z" fill="#F6C736"/>
</svg>
