<svg width="333" height="240" viewBox="0 0 333 240" fill="none" xmlns="http://www.w3.org/2000/svg">
<g opacity="0.6" filter="url(#filter0_f_0_1)">
<path d="M152.47 199.15L193.54 128.68L77.5099 40.0553L81.2757 86.9134L109.89 81.3162L152.47 199.15Z" fill="white" fill-opacity="0.8"/>
</g>
<rect y="36" width="331.807" height="175" rx="16" fill="url(#paint0_linear_0_1)"/>
<mask id="mask0_0_1" style="mask-type:alpha" maskUnits="userSpaceOnUse" x="0" y="36" width="333" height="163">
<rect y="36" width="332.673" height="162.871" rx="16" fill="#FF6DAA"/>
</mask>
<g mask="url(#mask0_0_1)">
<g opacity="0.56">
<path d="M27.2228 17.7258C27.2228 28.1525 19.0897 36.5724 9.09657 36.5724C-0.896558 36.5724 -9.02966 28.1525 -9.02966 17.7258C-9.02966 7.29907 -0.896558 -1.12079 9.09657 -1.12079C19.0897 -1.12079 27.2228 7.29907 27.2228 17.7258Z" stroke="white"/>
<path d="M47.1485 17.7256C47.1485 39.5826 30.0944 57.2686 9.09653 57.2686C-11.9013 57.2686 -28.9554 39.5826 -28.9554 17.7256C-28.9554 -4.1314 -11.9013 -21.8173 9.09653 -21.8173C30.0944 -21.8173 47.1485 -4.1314 47.1485 17.7256Z" stroke="white"/>
</g>
<circle cx="8.58307e-05" cy="122.634" r="20.7921" fill="url(#paint1_linear_0_1)"/>
</g>
<path d="M38.517 106.451H33.617L27.092 96.6006V106.451H22.192V88.8256H27.092L33.617 98.8006V88.8256H38.517V106.451ZM44.2832 91.1256C43.4165 91.1256 42.7165 90.8922 42.1832 90.4256C41.6665 89.9422 41.4082 89.3422 41.4082 88.6256C41.4082 87.8922 41.6665 87.2839 42.1832 86.8006C42.7165 86.3172 43.4165 86.0756 44.2832 86.0756C45.1332 86.0756 45.8165 86.3172 46.3332 86.8006C46.8665 87.2839 47.1332 87.8922 47.1332 88.6256C47.1332 89.3422 46.8665 89.9422 46.3332 90.4256C45.8165 90.8922 45.1332 91.1256 44.2832 91.1256ZM46.7082 92.4256V106.451H41.8082V92.4256H46.7082ZM49.1986 99.4256C49.1986 97.9756 49.4986 96.7089 50.0986 95.6256C50.6986 94.5422 51.532 93.7089 52.5986 93.1256C53.682 92.5422 54.9153 92.2506 56.2986 92.2506C58.082 92.2506 59.582 92.7422 60.7986 93.7256C62.0153 94.6922 62.7986 96.0506 63.1486 97.8006H57.9486C57.6486 96.8839 57.0653 96.4256 56.1986 96.4256C55.582 96.4256 55.0903 96.6839 54.7236 97.2006C54.3736 97.7006 54.1986 98.4422 54.1986 99.4256C54.1986 100.409 54.3736 101.159 54.7236 101.676C55.0903 102.192 55.582 102.451 56.1986 102.451C57.082 102.451 57.6653 101.992 57.9486 101.076H63.1486C62.7986 102.809 62.0153 104.167 60.7986 105.151C59.582 106.134 58.082 106.626 56.2986 106.626C54.9153 106.626 53.682 106.334 52.5986 105.751C51.532 105.167 50.6986 104.334 50.0986 103.251C49.4986 102.167 49.1986 100.892 49.1986 99.4256ZM79.0842 99.2756C79.0842 99.6589 79.0592 100.042 79.0092 100.426H69.7342C69.7842 101.192 69.9925 101.767 70.3592 102.151C70.7425 102.517 71.2258 102.701 71.8092 102.701C72.6258 102.701 73.2092 102.334 73.5592 101.601H78.7842C78.5675 102.567 78.1425 103.434 77.5092 104.201C76.8925 104.951 76.1092 105.542 75.1592 105.976C74.2092 106.409 73.1592 106.626 72.0092 106.626C70.6258 106.626 69.3925 106.334 68.3092 105.751C67.2425 105.167 66.4008 104.334 65.7842 103.251C65.1842 102.167 64.8842 100.892 64.8842 99.4256C64.8842 97.9589 65.1842 96.6922 65.7842 95.6256C66.3842 94.5422 67.2175 93.7089 68.2842 93.1256C69.3675 92.5422 70.6092 92.2506 72.0092 92.2506C73.3925 92.2506 74.6175 92.5339 75.6842 93.1006C76.7508 93.6672 77.5842 94.4839 78.1842 95.5506C78.7842 96.6006 79.0842 97.8422 79.0842 99.2756ZM74.0842 98.0506C74.0842 97.4506 73.8842 96.9839 73.4842 96.6506C73.0842 96.3006 72.5842 96.1256 71.9842 96.1256C71.3842 96.1256 70.8925 96.2922 70.5092 96.6256C70.1258 96.9422 69.8758 97.4172 69.7592 98.0506H74.0842ZM111.7 88.8256L107.375 106.451H101.35L98.9246 95.6506L96.4496 106.451H90.4246L86.1496 88.8256H91.4496L93.4996 100.876L96.2746 88.8256H101.65L104.35 100.776L106.4 88.8256H111.7ZM120.804 106.626C119.404 106.626 118.146 106.334 117.029 105.751C115.929 105.167 115.062 104.334 114.429 103.251C113.796 102.167 113.479 100.892 113.479 99.4256C113.479 97.9756 113.796 96.7089 114.429 95.6256C115.079 94.5422 115.954 93.7089 117.054 93.1256C118.171 92.5422 119.429 92.2506 120.829 92.2506C122.229 92.2506 123.479 92.5422 124.579 93.1256C125.696 93.7089 126.571 94.5422 127.204 95.6256C127.854 96.7089 128.179 97.9756 128.179 99.4256C128.179 100.876 127.854 102.151 127.204 103.251C126.571 104.334 125.696 105.167 124.579 105.751C123.462 106.334 122.204 106.626 120.804 106.626ZM120.804 102.376C121.487 102.376 122.054 102.126 122.504 101.626C122.971 101.109 123.204 100.376 123.204 99.4256C123.204 98.4756 122.971 97.7506 122.504 97.2506C122.054 96.7506 121.496 96.5006 120.829 96.5006C120.162 96.5006 119.604 96.7506 119.154 97.2506C118.704 97.7506 118.479 98.4756 118.479 99.4256C118.479 100.392 118.696 101.126 119.129 101.626C119.562 102.126 120.121 102.376 120.804 102.376ZM135.572 94.9006C136.122 94.1006 136.789 93.4672 137.572 93.0006C138.356 92.5339 139.197 92.3006 140.097 92.3006V97.5256H138.722C137.656 97.5256 136.864 97.7339 136.347 98.1506C135.831 98.5672 135.572 99.2922 135.572 100.326V106.451H130.672V92.4256H135.572V94.9006ZM151.129 106.451L147.254 100.701V106.451H142.354V87.9506H147.254V97.9256L151.129 92.4256H157.004L151.479 99.4756L157.104 106.451H151.129ZM165.591 87.9256L165.016 99.8506H160.841L160.266 87.9256H165.591ZM162.941 106.651C162.074 106.651 161.374 106.417 160.841 105.951C160.324 105.467 160.066 104.859 160.066 104.126C160.066 103.392 160.324 102.784 160.841 102.301C161.374 101.817 162.074 101.576 162.941 101.576C163.791 101.576 164.474 101.817 164.991 102.301C165.524 102.784 165.791 103.392 165.791 104.126C165.791 104.842 165.524 105.442 164.991 105.926C164.474 106.409 163.791 106.651 162.941 106.651Z" fill="#20347C"/>
<path d="M38.217 126.826L32.017 138.851V144.451H27.092V138.851L20.892 126.826H26.492L29.592 133.626L32.692 126.826H38.217ZM46.7463 144.626C45.3463 144.626 44.088 144.334 42.9713 143.751C41.8713 143.167 41.0046 142.334 40.3713 141.251C39.738 140.167 39.4213 138.892 39.4213 137.426C39.4213 135.976 39.738 134.709 40.3713 133.626C41.0213 132.542 41.8963 131.709 42.9963 131.126C44.113 130.542 45.3713 130.251 46.7713 130.251C48.1713 130.251 49.4213 130.542 50.5213 131.126C51.638 131.709 52.513 132.542 53.1463 133.626C53.7963 134.709 54.1213 135.976 54.1213 137.426C54.1213 138.876 53.7963 140.151 53.1463 141.251C52.513 142.334 51.638 143.167 50.5213 143.751C49.4046 144.334 48.1463 144.626 46.7463 144.626ZM46.7463 140.376C47.4296 140.376 47.9963 140.126 48.4463 139.626C48.913 139.109 49.1463 138.376 49.1463 137.426C49.1463 136.476 48.913 135.751 48.4463 135.251C47.9963 134.751 47.438 134.501 46.7713 134.501C46.1046 134.501 45.5463 134.751 45.0963 135.251C44.6463 135.751 44.4213 136.476 44.4213 137.426C44.4213 138.392 44.638 139.126 45.0713 139.626C45.5046 140.126 46.063 140.376 46.7463 140.376ZM70.9648 130.426V144.451H66.0398V142.451C65.6232 143.084 65.0482 143.601 64.3148 144.001C63.5815 144.384 62.7398 144.576 61.7898 144.576C60.1565 144.576 58.8648 144.042 57.9148 142.976C56.9815 141.892 56.5148 140.426 56.5148 138.576V130.426H61.3898V137.951C61.3898 138.751 61.5982 139.384 62.0148 139.851C62.4482 140.301 63.0148 140.526 63.7148 140.526C64.4315 140.526 64.9982 140.301 65.4148 139.851C65.8315 139.384 66.0398 138.751 66.0398 137.951V130.426H70.9648ZM92.9387 137.276C92.9387 137.659 92.9137 138.042 92.8637 138.426H83.5887C83.6387 139.192 83.847 139.767 84.2137 140.151C84.597 140.517 85.0803 140.701 85.6637 140.701C86.4803 140.701 87.0637 140.334 87.4137 139.601H92.6387C92.422 140.567 91.997 141.434 91.3637 142.201C90.747 142.951 89.9637 143.542 89.0137 143.976C88.0637 144.409 87.0137 144.626 85.8637 144.626C84.4803 144.626 83.247 144.334 82.1637 143.751C81.097 143.167 80.2553 142.334 79.6387 141.251C79.0387 140.167 78.7387 138.892 78.7387 137.426C78.7387 135.959 79.0387 134.692 79.6387 133.626C80.2387 132.542 81.072 131.709 82.1387 131.126C83.222 130.542 84.4637 130.251 85.8637 130.251C87.247 130.251 88.472 130.534 89.5387 131.101C90.6053 131.667 91.4387 132.484 92.0387 133.551C92.6387 134.601 92.9387 135.842 92.9387 137.276ZM87.9387 136.051C87.9387 135.451 87.7387 134.984 87.3387 134.651C86.9387 134.301 86.4387 134.126 85.8387 134.126C85.2387 134.126 84.747 134.292 84.3637 134.626C83.9803 134.942 83.7303 135.417 83.6137 136.051H87.9387ZM94.6439 137.426C94.6439 135.976 94.9023 134.709 95.4189 133.626C95.9523 132.542 96.6689 131.709 97.5689 131.126C98.4856 130.542 99.5023 130.251 100.619 130.251C101.586 130.251 102.419 130.442 103.119 130.826C103.819 131.209 104.361 131.726 104.744 132.376V130.426H109.644V144.451H104.744V142.501C104.361 143.151 103.811 143.667 103.094 144.051C102.394 144.434 101.569 144.626 100.619 144.626C99.5023 144.626 98.4856 144.334 97.5689 143.751C96.6689 143.167 95.9523 142.334 95.4189 141.251C94.9023 140.151 94.6439 138.876 94.6439 137.426ZM104.744 137.426C104.744 136.526 104.494 135.817 103.994 135.301C103.511 134.784 102.911 134.526 102.194 134.526C101.461 134.526 100.852 134.784 100.369 135.301C99.8856 135.801 99.6439 136.509 99.6439 137.426C99.6439 138.326 99.8856 139.042 100.369 139.576C100.852 140.092 101.461 140.351 102.194 140.351C102.911 140.351 103.511 140.092 103.994 139.576C104.494 139.059 104.744 138.342 104.744 137.426ZM117.836 132.901C118.386 132.101 119.053 131.467 119.836 131.001C120.619 130.534 121.461 130.301 122.361 130.301V135.526H120.986C119.919 135.526 119.128 135.734 118.611 136.151C118.094 136.567 117.836 137.292 117.836 138.326V144.451H112.936V130.426H117.836V132.901ZM133.793 130.301C135.409 130.301 136.693 130.842 137.643 131.926C138.593 132.992 139.068 134.442 139.068 136.276V144.451H134.168V136.926C134.168 136.126 133.959 135.501 133.543 135.051C133.126 134.584 132.568 134.351 131.868 134.351C131.134 134.351 130.559 134.584 130.143 135.051C129.726 135.501 129.518 136.126 129.518 136.926V144.451H124.618V130.426H129.518V132.426C129.951 131.792 130.534 131.284 131.268 130.901C132.001 130.501 132.843 130.301 133.793 130.301ZM155.656 137.276C155.656 137.659 155.631 138.042 155.581 138.426H146.306C146.356 139.192 146.565 139.767 146.931 140.151C147.315 140.517 147.798 140.701 148.381 140.701C149.198 140.701 149.781 140.334 150.131 139.601H155.356C155.14 140.567 154.715 141.434 154.081 142.201C153.465 142.951 152.681 143.542 151.731 143.976C150.781 144.409 149.731 144.626 148.581 144.626C147.198 144.626 145.965 144.334 144.881 143.751C143.815 143.167 142.973 142.334 142.356 141.251C141.756 140.167 141.456 138.892 141.456 137.426C141.456 135.959 141.756 134.692 142.356 133.626C142.956 132.542 143.79 131.709 144.856 131.126C145.94 130.542 147.181 130.251 148.581 130.251C149.965 130.251 151.19 130.534 152.256 131.101C153.323 131.667 154.156 132.484 154.756 133.551C155.356 134.601 155.656 135.842 155.656 137.276ZM150.656 136.051C150.656 135.451 150.456 134.984 150.056 134.651C149.656 134.301 149.156 134.126 148.556 134.126C147.956 134.126 147.465 134.292 147.081 134.626C146.698 134.942 146.448 135.417 146.331 136.051H150.656ZM157.362 137.426C157.362 135.976 157.62 134.709 158.137 133.626C158.67 132.542 159.395 131.709 160.312 131.126C161.228 130.542 162.245 130.251 163.362 130.251C164.262 130.251 165.062 130.442 165.762 130.826C166.478 131.192 167.037 131.701 167.437 132.351V125.951H172.362V144.451H167.437V142.501C167.053 143.151 166.512 143.667 165.812 144.051C165.112 144.434 164.287 144.626 163.337 144.626C162.22 144.626 161.203 144.334 160.287 143.751C159.387 143.167 158.67 142.334 158.137 141.251C157.62 140.151 157.362 138.876 157.362 137.426ZM167.462 137.426C167.462 136.526 167.212 135.817 166.712 135.301C166.228 134.784 165.628 134.526 164.912 134.526C164.178 134.526 163.57 134.784 163.087 135.301C162.603 135.801 162.362 136.509 162.362 137.426C162.362 138.326 162.603 139.042 163.087 139.576C163.57 140.092 164.178 140.351 164.912 140.351C165.628 140.351 166.228 140.092 166.712 139.576C167.212 139.059 167.462 138.342 167.462 137.426ZM21.767 173.051C21.767 170.184 22.3503 167.926 23.517 166.276C24.6837 164.626 26.517 163.801 29.017 163.801C31.517 163.801 33.3503 164.626 34.517 166.276C35.7003 167.926 36.292 170.184 36.292 173.051C36.292 175.951 35.7087 178.226 34.542 179.876C33.3753 181.526 31.5337 182.351 29.017 182.351C26.5003 182.351 24.6587 181.526 23.492 179.876C22.342 178.226 21.767 175.951 21.767 173.051ZM31.442 173.051C31.442 171.551 31.2837 170.409 30.967 169.626C30.6503 168.826 30.0003 168.426 29.017 168.426C28.0337 168.426 27.3837 168.826 27.067 169.626C26.7503 170.409 26.592 171.551 26.592 173.051C26.592 174.584 26.742 175.751 27.042 176.551C27.3587 177.334 28.017 177.726 29.017 177.726C30.017 177.726 30.667 177.334 30.967 176.551C31.2837 175.751 31.442 174.584 31.442 173.051ZM44.3977 178.251L41.7227 185.551H38.6227L39.9227 178.251H44.3977ZM46.909 178.526C48.5257 177.259 49.8507 176.167 50.884 175.251C51.9173 174.334 52.784 173.392 53.484 172.426C54.184 171.442 54.534 170.509 54.534 169.626C54.534 169.092 54.409 168.676 54.159 168.376C53.9257 168.076 53.5757 167.926 53.109 167.926C52.6257 167.926 52.2507 168.134 51.984 168.551C51.7173 168.951 51.5923 169.542 51.609 170.326H46.859C46.909 168.842 47.234 167.617 47.834 166.651C48.434 165.667 49.2173 164.951 50.184 164.501C51.1507 164.034 52.2257 163.801 53.409 163.801C55.459 163.801 56.984 164.309 57.984 165.326C58.984 166.342 59.484 167.659 59.484 169.276C59.484 171.009 58.9007 172.634 57.734 174.151C56.584 175.667 55.1423 177.026 53.409 178.226H59.659V182.201H46.909V178.526ZM75.0924 168.501H67.5924V171.276C67.9091 170.942 68.3424 170.676 68.8924 170.476C69.4424 170.276 70.0507 170.176 70.7174 170.176C71.9174 170.176 72.9174 170.451 73.7174 171.001C74.534 171.551 75.134 172.276 75.5174 173.176C75.9007 174.076 76.0924 175.059 76.0924 176.126C76.0924 178.092 75.534 179.642 74.4174 180.776C73.3007 181.892 71.7507 182.451 69.7674 182.451C68.384 182.451 67.184 182.217 66.1674 181.751C65.1674 181.267 64.4007 180.601 63.8674 179.751C63.334 178.901 63.059 177.926 63.0424 176.826H67.8174C67.8674 177.209 68.034 177.542 68.3174 177.826C68.6007 178.109 69.0174 178.251 69.5674 178.251C70.1507 178.251 70.5924 178.051 70.8924 177.651C71.1924 177.251 71.3424 176.717 71.3424 176.051C71.3424 175.401 71.1841 174.909 70.8674 174.576C70.5507 174.226 70.0924 174.051 69.4924 174.051C69.0424 174.051 68.6757 174.167 68.3924 174.401C68.1257 174.617 67.9674 174.892 67.9174 175.226H63.1424V164.176H75.0924V168.501ZM109.209 164.826L104.884 182.451H98.8594L96.4344 171.651L93.9594 182.451H87.9344L83.6594 164.826H88.9594L91.0094 176.876L93.7844 164.826H99.1594L101.859 176.776L103.909 164.826H109.209ZM116.689 178.701H122.164V182.451H111.789V164.826H116.689V178.701ZM131.544 164.826C133.394 164.826 135.011 165.201 136.394 165.951C137.794 166.684 138.869 167.717 139.619 169.051C140.369 170.384 140.744 171.909 140.744 173.626C140.744 175.326 140.361 176.842 139.594 178.176C138.844 179.509 137.769 180.559 136.369 181.326C134.986 182.076 133.377 182.451 131.544 182.451H124.569V164.826H131.544ZM131.169 178.126C132.602 178.126 133.727 177.734 134.544 176.951C135.361 176.167 135.769 175.059 135.769 173.626C135.769 172.176 135.361 171.059 134.544 170.276C133.727 169.476 132.602 169.076 131.169 169.076H129.469V178.126H131.169ZM150.003 163.926L149.428 175.851H145.253L144.678 163.926H150.003ZM147.353 182.651C146.486 182.651 145.786 182.417 145.253 181.951C144.736 181.467 144.478 180.859 144.478 180.126C144.478 179.392 144.736 178.784 145.253 178.301C145.786 177.817 146.486 177.576 147.353 177.576C148.203 177.576 148.886 177.817 149.403 178.301C149.936 178.784 150.203 179.392 150.203 180.126C150.203 180.842 149.936 181.442 149.403 181.926C148.886 182.409 148.203 182.651 147.353 182.651Z" fill="#233887"/>
<path d="M25.94 74.9902L24.092 71.7262H23.3V74.9902H21.62V66.6142H24.764C25.412 66.6142 25.964 66.7302 26.42 66.9622C26.876 67.1862 27.216 67.4942 27.44 67.8862C27.672 68.2702 27.788 68.7022 27.788 69.1822C27.788 69.7342 27.628 70.2342 27.308 70.6822C26.988 71.1222 26.512 71.4262 25.88 71.5942L27.884 74.9902H25.94ZM23.3 70.4662H24.704C25.16 70.4662 25.5 70.3582 25.724 70.1422C25.948 69.9182 26.06 69.6102 26.06 69.2182C26.06 68.8342 25.948 68.5382 25.724 68.3302C25.5 68.1142 25.16 68.0062 24.704 68.0062H23.3V70.4662ZM35.7275 71.5222C35.7275 71.7622 35.7115 71.9782 35.6795 72.1702H30.8195C30.8595 72.6502 31.0275 73.0262 31.3235 73.2982C31.6195 73.5702 31.9835 73.7062 32.4155 73.7062C33.0395 73.7062 33.4835 73.4382 33.7475 72.9022H35.5595C35.3675 73.5422 34.9995 74.0702 34.4555 74.4862C33.9115 74.8942 33.2435 75.0982 32.4515 75.0982C31.8115 75.0982 31.2355 74.9582 30.7235 74.6782C30.2195 74.3902 29.8235 73.9862 29.5355 73.4662C29.2555 72.9462 29.1155 72.3462 29.1155 71.6662C29.1155 70.9782 29.2555 70.3742 29.5355 69.8542C29.8155 69.3342 30.2075 68.9342 30.7115 68.6542C31.2155 68.3742 31.7955 68.2342 32.4515 68.2342C33.0835 68.2342 33.6475 68.3702 34.1435 68.6422C34.6475 68.9142 35.0355 69.3022 35.3075 69.8062C35.5875 70.3022 35.7275 70.8742 35.7275 71.5222ZM33.9875 71.0422C33.9795 70.6102 33.8235 70.2662 33.5195 70.0102C33.2155 69.7462 32.8435 69.6142 32.4035 69.6142C31.9875 69.6142 31.6355 69.7422 31.3475 69.9982C31.0675 70.2462 30.8955 70.5942 30.8315 71.0422H33.9875ZM39.7377 75.0982C39.1937 75.0982 38.7057 75.0022 38.2737 74.8102C37.8417 74.6102 37.4977 74.3422 37.2417 74.0062C36.9937 73.6702 36.8577 73.2982 36.8337 72.8902H38.5257C38.5577 73.1462 38.6817 73.3582 38.8977 73.5262C39.1217 73.6942 39.3977 73.7782 39.7257 73.7782C40.0457 73.7782 40.2937 73.7142 40.4697 73.5862C40.6537 73.4582 40.7457 73.2942 40.7457 73.0942C40.7457 72.8782 40.6337 72.7182 40.4097 72.6142C40.1937 72.5022 39.8457 72.3822 39.3657 72.2542C38.8697 72.1342 38.4617 72.0102 38.1417 71.8822C37.8297 71.7542 37.5577 71.5582 37.3257 71.2942C37.1017 71.0302 36.9897 70.6742 36.9897 70.2262C36.9897 69.8582 37.0937 69.5222 37.3017 69.2182C37.5177 68.9142 37.8217 68.6742 38.2137 68.4982C38.6137 68.3222 39.0817 68.2342 39.6177 68.2342C40.4097 68.2342 41.0417 68.4342 41.5137 68.8342C41.9857 69.2262 42.2457 69.7582 42.2937 70.4302H40.6857C40.6617 70.1662 40.5497 69.9582 40.3497 69.8062C40.1577 69.6462 39.8977 69.5662 39.5697 69.5662C39.2657 69.5662 39.0297 69.6222 38.8617 69.7342C38.7017 69.8462 38.6217 70.0022 38.6217 70.2022C38.6217 70.4262 38.7337 70.5982 38.9577 70.7182C39.1817 70.8302 39.5297 70.9462 40.0017 71.0662C40.4817 71.1862 40.8777 71.3102 41.1897 71.4382C41.5017 71.5662 41.7697 71.7662 41.9937 72.0382C42.2257 72.3022 42.3457 72.6542 42.3537 73.0942C42.3537 73.4782 42.2457 73.8222 42.0297 74.1262C41.8217 74.4302 41.5177 74.6702 41.1177 74.8462C40.7257 75.0142 40.2657 75.0982 39.7377 75.0982ZM50.2488 68.3422V74.9902H48.5568V74.1502C48.3408 74.4382 48.0568 74.6662 47.7048 74.8342C47.3608 74.9942 46.9848 75.0742 46.5768 75.0742C46.0568 75.0742 45.5968 74.9662 45.1968 74.7502C44.7968 74.5262 44.4808 74.2022 44.2488 73.7782C44.0248 73.3462 43.9128 72.8342 43.9128 72.2422V68.3422H45.5928V72.0022C45.5928 72.5302 45.7248 72.9382 45.9888 73.2262C46.2528 73.5062 46.6128 73.6462 47.0688 73.6462C47.5328 73.6462 47.8968 73.5062 48.1608 73.2262C48.4248 72.9382 48.5568 72.5302 48.5568 72.0022V68.3422H50.2488ZM53.8264 66.1102V74.9902H52.1464V66.1102H53.8264ZM57.6822 69.7222V72.9382C57.6822 73.1622 57.7342 73.3262 57.8382 73.4302C57.9502 73.5262 58.1342 73.5742 58.3902 73.5742H59.1702V74.9902H58.1142C56.6982 74.9902 55.9902 74.3022 55.9902 72.9262V69.7222H55.1982V68.3422H55.9902V66.6982H57.6822V68.3422H59.1702V69.7222H57.6822ZM63.1626 75.0982C62.6186 75.0982 62.1306 75.0022 61.6986 74.8102C61.2666 74.6102 60.9226 74.3422 60.6666 74.0062C60.4186 73.6702 60.2826 73.2982 60.2586 72.8902H61.9506C61.9826 73.1462 62.1066 73.3582 62.3226 73.5262C62.5466 73.6942 62.8226 73.7782 63.1506 73.7782C63.4706 73.7782 63.7186 73.7142 63.8946 73.5862C64.0786 73.4582 64.1706 73.2942 64.1706 73.0942C64.1706 72.8782 64.0586 72.7182 63.8346 72.6142C63.6186 72.5022 63.2706 72.3822 62.7906 72.2542C62.2946 72.1342 61.8866 72.0102 61.5666 71.8822C61.2546 71.7542 60.9826 71.5582 60.7506 71.2942C60.5266 71.0302 60.4146 70.6742 60.4146 70.2262C60.4146 69.8582 60.5186 69.5222 60.7266 69.2182C60.9426 68.9142 61.2466 68.6742 61.6386 68.4982C62.0386 68.3222 62.5066 68.2342 63.0426 68.2342C63.8346 68.2342 64.4666 68.4342 64.9386 68.8342C65.4106 69.2262 65.6706 69.7582 65.7186 70.4302H64.1106C64.0866 70.1662 63.9746 69.9582 63.7746 69.8062C63.5826 69.6462 63.3226 69.5662 62.9946 69.5662C62.6906 69.5662 62.4546 69.6222 62.2866 69.7342C62.1266 69.8462 62.0466 70.0022 62.0466 70.2022C62.0466 70.4262 62.1586 70.5982 62.3826 70.7182C62.6066 70.8302 62.9546 70.9462 63.4266 71.0662C63.9066 71.1862 64.3026 71.3102 64.6146 71.4382C64.9266 71.5662 65.1946 71.7662 65.4186 72.0382C65.6506 72.3022 65.7706 72.6542 65.7786 73.0942C65.7786 73.4782 65.6706 73.8222 65.4546 74.1262C65.2466 74.4302 64.9426 74.6702 64.5426 74.8462C64.1506 75.0142 63.6906 75.0982 63.1626 75.0982Z" fill="#223683"/>
<g clip-path="url(#clip0_0_1)">
<path d="M251.254 142.766L251.239 136.938C247.411 138.968 244.836 139.547 242.957 139.578L244.588 131.127C246.074 130.995 248.703 130.987 252.815 128.589C256.526 126.426 257.717 123.864 257.717 122.014C257.709 119.827 255.713 119.6 250.85 120.311C244.054 121.49 241.3 119.445 241.276 113.486C241.261 107.582 244.841 100.459 251.406 95.3029L251.39 88.5462L256.988 85.2823L257.003 91.5784C260.831 89.549 264.542 88.5804 266.716 88.7673L265.022 97.5218C262.616 97.3981 259.252 97.9666 255.533 100.13C252.279 102.028 250.058 104.779 250.066 107.432C250.074 109.953 251.898 110.469 256.128 109.674C262.244 108.495 266.418 109.369 266.442 115.805C266.458 121.632 262.932 128.271 256.823 133.222L256.839 139.518L251.249 142.766H251.254Z" fill="#CE4227"/>
<path d="M254.163 160.465C269.457 151.544 282.711 133.832 289.393 115.273C292.353 107.04 294.023 98.6378 294.003 90.7651C293.987 83.7504 292.619 77.878 290.206 73.3165C283.792 61.2165 269.937 58.3211 253.899 67.6679C231.822 80.5418 213.984 111.751 214.052 137.378C214.13 163.005 232.085 173.336 254.16 160.465H254.163ZM221.111 133.269C221.049 112.196 235.772 86.4536 253.92 75.8618C272.068 65.2779 286.886 73.8008 286.946 94.8712C287.008 115.936 272.285 141.695 254.137 152.279C235.981 162.862 221.163 154.332 221.111 133.269Z" fill="#FFDC00"/>
<path d="M254.139 152.279C235.983 162.862 221.174 154.332 221.114 133.269C221.051 112.196 235.775 86.4536 253.923 75.8618C272.071 65.2779 286.888 73.8009 286.948 94.8713C287.011 115.936 272.287 141.695 254.139 152.279ZM253.939 80.6418C238.055 89.9044 225.174 112.43 225.226 130.871C225.281 149.304 238.24 156.772 254.124 147.507C270.007 138.244 282.888 115.71 282.836 97.2771C282.781 78.8362 269.814 71.3766 253.939 80.6418Z" fill="#FFAE00"/>
<path d="M254.124 147.506C238.24 156.769 225.281 149.302 225.226 130.871C225.171 112.43 238.055 89.907 253.939 80.6418C269.822 71.3792 282.781 78.8388 282.836 97.277C282.891 115.702 270.007 138.241 254.124 147.506ZM251.4 95.295C244.844 100.449 241.255 107.582 241.271 113.478C241.287 119.437 244.039 121.482 250.845 120.303C255.7 119.592 257.704 119.819 257.712 122.006C257.72 123.857 256.521 126.42 252.81 128.581C248.703 130.979 246.069 130.979 244.583 131.119L242.952 139.571C244.839 139.539 247.405 138.962 251.234 136.93L251.249 142.758L256.839 139.502L256.823 133.206C262.932 128.255 266.458 121.617 266.442 115.789C266.426 109.353 262.252 108.479 256.128 109.659C251.898 110.456 250.074 109.94 250.066 107.416C250.058 104.76 252.279 102.012 255.533 100.114C259.244 97.9509 262.609 97.3797 265.022 97.506L266.716 88.7515C264.542 88.5646 260.831 89.5332 257.003 91.5626L256.988 85.2665L251.39 88.5304L251.406 95.295H251.4Z" fill="#FFD900"/>
<path d="M246.856 63.538C257.967 57.0629 268.026 56.4628 275.297 60.7269L282.341 64.8673C282.31 64.8515 282.278 64.8357 282.247 64.8199C274.987 60.6111 264.964 61.2349 253.899 67.6863C231.822 80.5549 213.984 111.767 214.052 137.394C214.091 150.094 218.521 159.027 225.666 163.255C225.682 163.263 225.698 163.278 225.713 163.286L218.669 159.146C211.493 154.934 207.047 145.977 207.008 133.253C206.937 107.627 224.778 76.4093 246.856 63.538Z" fill="#FFBB00"/>
<path d="M243.283 65.8096C244.458 65.0042 245.649 64.2408 246.848 63.5381C252.052 60.4979 257.032 58.7581 261.6 58.1948C262.21 58.1158 262.814 58.0711 263.401 58.0395C264.592 57.9763 265.744 57.9921 266.864 58.0948C267.43 58.1421 267.977 58.2132 268.519 58.3053C269.121 58.408 269.71 58.5317 270.291 58.6791C270.7 58.7818 271.096 58.8976 271.49 59.0318C272.819 59.4609 274.088 60.032 275.279 60.7269L282.323 64.8673C275.055 60.6032 264.993 61.2033 253.881 67.6784C253.571 67.8574 253.271 68.0443 252.961 68.2338C252.08 68.7734 251.197 69.342 250.332 69.9368L243.28 65.8122L243.283 65.8096Z" fill="#FFBB00"/>
<path d="M243.283 65.8096L250.342 69.9263C240.111 76.941 231.003 87.7802 224.468 99.8961L217.408 95.7794C223.949 83.6662 233.06 72.8322 243.283 65.8096Z" fill="#FFB422"/>
</g>
<g clip-path="url(#clip1_0_1)">
<path d="M259.136 182.011L261.23 178.503C258.183 178.333 256.418 177.747 255.271 177.084L259.308 172.596C260.253 173.056 261.845 174.006 265.196 174.057C268.22 174.104 269.864 172.997 270.532 171.885C271.317 170.567 270.192 169.707 266.996 168.369C262.463 166.61 261.536 164.381 263.673 160.791C265.794 157.237 270.529 154.256 276.358 153.539L278.788 149.473L283.349 149.543L281.086 153.333C284.133 153.502 286.725 154.267 287.972 155.169L283.788 159.815C282.379 158.868 280.14 157.988 277.111 157.939C274.459 157.898 272.124 158.745 271.171 160.343C270.266 161.861 271.182 162.834 274.025 163.891C278.148 165.403 280.356 167.443 278.047 171.32C275.953 174.828 271.426 177.538 265.947 178.296L263.684 182.086L259.132 182.01L259.136 182.011Z" fill="#CE4227"/>
<path d="M254.505 193.705C266.97 193.895 281.374 188.061 292.112 179.331C296.873 175.457 300.915 171.014 303.744 166.274C306.266 162.052 307.559 158.026 307.747 154.409C308.238 144.808 300.908 138.038 287.841 137.835C269.849 137.559 247.802 149.842 238.593 165.269C229.391 180.7 236.515 193.427 254.504 193.704L254.505 193.705ZM244.343 165.362C251.912 152.673 270.103 142.546 284.896 142.767C299.685 142.993 305.565 153.495 297.996 166.181C290.431 178.864 272.234 189.001 257.444 188.775C242.65 188.546 236.773 178.04 244.343 165.362Z" fill="#FFDC00"/>
<path d="M257.446 188.776C242.651 188.547 236.779 178.044 244.345 165.363C251.913 152.674 270.105 142.547 284.897 142.768C299.687 142.994 305.567 153.496 297.998 166.182C290.432 178.865 272.235 189.002 257.446 188.776ZM283.181 145.647C270.237 145.448 254.321 154.312 247.696 165.414C241.076 176.513 246.214 185.705 259.159 185.902C272.103 186.101 288.022 177.233 294.644 166.135C301.267 155.031 296.121 145.841 283.181 145.647Z" fill="#FFAE00"/>
<path d="M259.159 185.902C246.215 185.704 241.077 176.511 247.696 165.414C254.319 154.311 270.237 145.45 283.181 145.647C296.125 145.845 301.266 155.033 294.644 166.135C288.027 177.229 272.104 186.099 259.159 185.902ZM276.358 153.533C270.535 154.25 265.791 157.235 263.673 160.784C261.531 164.372 262.456 166.6 266.996 168.362C270.187 169.697 271.317 170.561 270.532 171.878C269.869 172.993 268.219 174.099 265.196 174.051C261.848 174.001 260.255 173.045 259.307 172.589L255.271 177.077C256.422 177.743 258.182 178.328 261.229 178.497L259.135 182.005L263.689 182.077L265.952 178.287C271.432 177.529 275.959 174.819 278.053 171.31C280.366 167.437 278.158 165.396 274.031 163.882C271.187 162.826 270.27 161.854 271.177 160.334C272.131 158.734 274.465 157.889 277.117 157.93C280.141 157.976 282.381 158.854 283.794 159.806L287.977 155.159C286.731 154.258 284.138 153.493 281.092 153.323L283.355 149.533L278.794 149.463L276.361 153.535L276.358 153.533Z" fill="#FFD900"/>
<path d="M285.074 132.796C294.127 132.938 300.424 136.228 303.28 141.43L306.043 146.476C306.03 146.455 306.017 146.434 306.003 146.413C303.134 141.248 296.851 137.985 287.834 137.846C269.844 137.567 247.797 149.851 238.588 165.278C234.027 172.926 233.481 179.903 236.274 185.038C236.281 185.048 236.284 185.063 236.291 185.074L233.528 180.028C230.71 174.892 231.256 167.895 235.825 160.233C245.032 144.805 267.083 132.518 285.074 132.796Z" fill="#FFB422"/>
<path d="M282.094 132.864C283.095 132.807 284.091 132.78 285.069 132.793C289.312 132.855 292.95 133.617 295.915 134.936C296.312 135.11 296.693 135.303 297.059 135.497C297.802 135.891 298.492 136.319 299.132 136.787C299.457 137.021 299.762 137.262 300.057 137.514C300.383 137.795 300.695 138.083 300.993 138.382C301.203 138.592 301.401 138.806 301.59 139.029C302.239 139.77 302.8 140.574 303.269 141.424L306.032 146.469C303.178 141.268 296.879 137.976 287.826 137.835C287.574 137.83 287.325 137.833 287.069 137.834C286.342 137.839 285.603 137.86 284.865 137.904L282.092 132.865L282.094 132.864Z" fill="#FFBB00"/>
<path d="M282.094 132.864L284.875 137.901C276.159 138.403 266.742 141.612 258.418 146.522L255.637 141.485C263.963 136.579 273.38 133.374 282.094 132.864Z" fill="#FFB422"/>
</g>
<defs>
<filter id="filter0_f_0_1" x="37.5099" y="0.0552979" width="196.03" height="239.095" filterUnits="userSpaceOnUse" color-interpolation-filters="sRGB">
<feFlood flood-opacity="0" result="BackgroundImageFix"/>
<feBlend mode="normal" in="SourceGraphic" in2="BackgroundImageFix" result="shape"/>
<feGaussianBlur stdDeviation="20" result="effect1_foregroundBlur_0_1"/>
</filter>
<linearGradient id="paint0_linear_0_1" x1="165.903" y1="36" x2="165.903" y2="211" gradientUnits="userSpaceOnUse">
<stop stop-color="#FFCB3A"/>
<stop offset="1" stop-color="#FFDE75"/>
</linearGradient>
<linearGradient id="paint1_linear_0_1" x1="-27.6144" y1="73.9023" x2="8.62422e-05" y2="143.426" gradientUnits="userSpaceOnUse">
<stop stop-color="white"/>
<stop offset="1" stop-color="white" stop-opacity="0"/>
</linearGradient>
<clipPath id="clip0_0_1">
<rect width="87" height="108" fill="white" transform="translate(207 58)"/>
</clipPath>
<clipPath id="clip1_0_1">
<rect width="61.3408" height="75.7176" fill="white" transform="translate(262.982 115) rotate(30.9863)"/>
</clipPath>
</defs>
</svg>
