<svg width="287" height="38" viewBox="0 0 287 38" fill="none" xmlns="http://www.w3.org/2000/svg">
<path d="M16.6 10.45L10.525 22.2V28H6.25V22.2L0.175 10.45H5.025L8.425 17.8L11.8 10.45H16.6ZM17.4725 21C17.4725 19.5667 17.7391 18.3083 18.2725 17.225C18.8225 16.1417 19.5641 15.3083 20.4975 14.725C21.4308 14.1417 22.4725 13.85 23.6225 13.85C24.6058 13.85 25.4641 14.05 26.1975 14.45C26.9475 14.85 27.5225 15.375 27.9225 16.025V14.05H32.1975V28H27.9225V26.025C27.5058 26.675 26.9225 27.2 26.1725 27.6C25.4391 28 24.5808 28.2 23.5975 28.2C22.4641 28.2 21.4308 27.9083 20.4975 27.325C19.5641 26.725 18.8225 25.8833 18.2725 24.8C17.7391 23.7 17.4725 22.4333 17.4725 21ZM27.9225 21.025C27.9225 19.9583 27.6225 19.1167 27.0225 18.5C26.4391 17.8833 25.7225 17.575 24.8725 17.575C24.0225 17.575 23.2975 17.8833 22.6975 18.5C22.1141 19.1 21.8225 19.9333 21.8225 21C21.8225 22.0667 22.1141 22.9167 22.6975 23.55C23.2975 24.1667 24.0225 24.475 24.8725 24.475C25.7225 24.475 26.4391 24.1667 27.0225 23.55C27.6225 22.9333 27.9225 22.0917 27.9225 21.025ZM49.5402 14.05L40.7902 34.625H36.1902L39.3902 27.525L33.7152 14.05H38.4902L41.7152 22.775L44.9152 14.05H49.5402ZM56.7111 9.825L56.2111 21.8H52.5861L52.0861 9.825H56.7111ZM54.4611 28.2C53.7111 28.2 53.0945 27.9833 52.6111 27.55C52.1445 27.1 51.9111 26.55 51.9111 25.9C51.9111 25.2333 52.1445 24.675 52.6111 24.225C53.0945 23.775 53.7111 23.55 54.4611 23.55C55.1945 23.55 55.7945 23.775 56.2611 24.225C56.7445 24.675 56.9861 25.2333 56.9861 25.9C56.9861 26.55 56.7445 27.1 56.2611 27.55C55.7945 27.9833 55.1945 28.2 54.4611 28.2ZM65.449 19.2C65.449 17.4667 65.824 15.925 66.574 14.575C67.324 13.2083 68.3657 12.15 69.699 11.4C71.049 10.6333 72.574 10.25 74.274 10.25C76.3574 10.25 78.1407 10.8 79.624 11.9C81.1074 13 82.099 14.5 82.599 16.4H77.899C77.549 15.6667 77.049 15.1083 76.399 14.725C75.7657 14.3417 75.0407 14.15 74.224 14.15C72.9074 14.15 71.8407 14.6083 71.024 15.525C70.2074 16.4417 69.799 17.6667 69.799 19.2C69.799 20.7333 70.2074 21.9583 71.024 22.875C71.8407 23.7917 72.9074 24.25 74.224 24.25C75.0407 24.25 75.7657 24.0583 76.399 23.675C77.049 23.2917 77.549 22.7333 77.899 22H82.599C82.099 23.9 81.1074 25.4 79.624 26.5C78.1407 27.5833 76.3574 28.125 74.274 28.125C72.574 28.125 71.049 27.75 69.699 27C68.3657 26.2333 67.324 25.175 66.574 23.825C65.824 22.475 65.449 20.9333 65.449 19.2ZM91.567 28.2C90.2003 28.2 88.967 27.9083 87.867 27.325C86.7837 26.7417 85.9253 25.9083 85.292 24.825C84.6753 23.7417 84.367 22.475 84.367 21.025C84.367 19.5917 84.6837 18.3333 85.317 17.25C85.9503 16.15 86.817 15.3083 87.917 14.725C89.017 14.1417 90.2503 13.85 91.617 13.85C92.9837 13.85 94.217 14.1417 95.317 14.725C96.417 15.3083 97.2837 16.15 97.917 17.25C98.5503 18.3333 98.867 19.5917 98.867 21.025C98.867 22.4583 98.542 23.725 97.892 24.825C97.2587 25.9083 96.3837 26.7417 95.267 27.325C94.167 27.9083 92.9337 28.2 91.567 28.2ZM91.567 24.5C92.3837 24.5 93.0753 24.2 93.642 23.6C94.2253 23 94.517 22.1417 94.517 21.025C94.517 19.9083 94.2337 19.05 93.667 18.45C93.117 17.85 92.4337 17.55 91.617 17.55C90.7837 17.55 90.092 17.85 89.542 18.45C88.992 19.0333 88.717 19.8917 88.717 21.025C88.717 22.1417 88.9837 23 89.517 23.6C90.067 24.2 90.7503 24.5 91.567 24.5ZM109.635 13.9C111.268 13.9 112.568 14.4333 113.535 15.5C114.518 16.55 115.01 18 115.01 19.85V28H110.76V20.425C110.76 19.4917 110.518 18.7667 110.035 18.25C109.552 17.7333 108.902 17.475 108.085 17.475C107.268 17.475 106.618 17.7333 106.135 18.25C105.652 18.7667 105.41 19.4917 105.41 20.425V28H101.135V14.05H105.41V15.9C105.843 15.2833 106.427 14.8 107.16 14.45C107.893 14.0833 108.718 13.9 109.635 13.9ZM123.281 13.85C124.264 13.85 125.122 14.05 125.856 14.45C126.606 14.85 127.181 15.375 127.581 16.025V14.05H131.856V27.975C131.856 29.2583 131.597 30.4167 131.081 31.45C130.581 32.5 129.806 33.3333 128.756 33.95C127.722 34.5667 126.431 34.875 124.881 34.875C122.814 34.875 121.139 34.3833 119.856 33.4C118.572 32.4333 117.839 31.1167 117.656 29.45H121.881C122.014 29.9833 122.331 30.4 122.831 30.7C123.331 31.0167 123.947 31.175 124.681 31.175C125.564 31.175 126.264 30.9167 126.781 30.4C127.314 29.9 127.581 29.0917 127.581 27.975V26C127.164 26.65 126.589 27.1833 125.856 27.6C125.122 28 124.264 28.2 123.281 28.2C122.131 28.2 121.089 27.9083 120.156 27.325C119.222 26.725 118.481 25.8833 117.931 24.8C117.397 23.7 117.131 22.4333 117.131 21C117.131 19.5667 117.397 18.3083 117.931 17.225C118.481 16.1417 119.222 15.3083 120.156 14.725C121.089 14.1417 122.131 13.85 123.281 13.85ZM127.581 21.025C127.581 19.9583 127.281 19.1167 126.681 18.5C126.097 17.8833 125.381 17.575 124.531 17.575C123.681 17.575 122.956 17.8833 122.356 18.5C121.772 19.1 121.481 19.9333 121.481 21C121.481 22.0667 121.772 22.9167 122.356 23.55C122.956 24.1667 123.681 24.475 124.531 24.475C125.381 24.475 126.097 24.1667 126.681 23.55C127.281 22.9333 127.581 22.0917 127.581 21.025ZM139.223 16.375C139.723 15.6083 140.348 15.0083 141.098 14.575C141.848 14.125 142.682 13.9 143.598 13.9V18.425H142.423C141.357 18.425 140.557 18.6583 140.023 19.125C139.49 19.575 139.223 20.375 139.223 21.525V28H134.948V14.05H139.223V16.375ZM144.792 21C144.792 19.5667 145.058 18.3083 145.592 17.225C146.142 16.1417 146.883 15.3083 147.817 14.725C148.75 14.1417 149.792 13.85 150.942 13.85C151.925 13.85 152.783 14.05 153.517 14.45C154.267 14.85 154.842 15.375 155.242 16.025V14.05H159.517V28H155.242V26.025C154.825 26.675 154.242 27.2 153.492 27.6C152.758 28 151.9 28.2 150.917 28.2C149.783 28.2 148.75 27.9083 147.817 27.325C146.883 26.725 146.142 25.8833 145.592 24.8C145.058 23.7 144.792 22.4333 144.792 21ZM155.242 21.025C155.242 19.9583 154.942 19.1167 154.342 18.5C153.758 17.8833 153.042 17.575 152.192 17.575C151.342 17.575 150.617 17.8833 150.017 18.5C149.433 19.1 149.142 19.9333 149.142 21C149.142 22.0667 149.433 22.9167 150.017 23.55C150.617 24.1667 151.342 24.475 152.192 24.475C153.042 24.475 153.758 24.1667 154.342 23.55C154.942 22.9333 155.242 22.0917 155.242 21.025ZM170.385 24.375V28H168.21C166.66 28 165.451 27.625 164.585 26.875C163.718 26.1083 163.285 24.8667 163.285 23.15V17.6H161.585V14.05H163.285V10.65H167.56V14.05H170.36V17.6H167.56V23.2C167.56 23.6167 167.66 23.9167 167.86 24.1C168.06 24.2833 168.393 24.375 168.86 24.375H170.385ZM186.541 14.05V28H182.266V26.1C181.832 26.7167 181.241 27.2167 180.491 27.6C179.757 27.9667 178.941 28.15 178.041 28.15C176.974 28.15 176.032 27.9167 175.216 27.45C174.399 26.9667 173.766 26.275 173.316 25.375C172.866 24.475 172.641 23.4167 172.641 22.2V14.05H176.891V21.625C176.891 22.5583 177.132 23.2833 177.616 23.8C178.099 24.3167 178.749 24.575 179.566 24.575C180.399 24.575 181.057 24.3167 181.541 23.8C182.024 23.2833 182.266 22.5583 182.266 21.625V14.05H186.541ZM193.887 9.5V28H189.612V9.5H193.887ZM196.135 21C196.135 19.5667 196.401 18.3083 196.935 17.225C197.485 16.1417 198.226 15.3083 199.16 14.725C200.093 14.1417 201.135 13.85 202.285 13.85C203.268 13.85 204.126 14.05 204.86 14.45C205.61 14.85 206.185 15.375 206.585 16.025V14.05H210.86V28H206.585V26.025C206.168 26.675 205.585 27.2 204.835 27.6C204.101 28 203.243 28.2 202.26 28.2C201.126 28.2 200.093 27.9083 199.16 27.325C198.226 26.725 197.485 25.8833 196.935 24.8C196.401 23.7 196.135 22.4333 196.135 21ZM206.585 21.025C206.585 19.9583 206.285 19.1167 205.685 18.5C205.101 17.8833 204.385 17.575 203.535 17.575C202.685 17.575 201.96 17.8833 201.36 18.5C200.776 19.1 200.485 19.9333 200.485 21C200.485 22.0667 200.776 22.9167 201.36 23.55C201.96 24.1667 202.685 24.475 203.535 24.475C204.385 24.475 205.101 24.1667 205.685 23.55C206.285 22.9333 206.585 22.0917 206.585 21.025ZM221.727 24.375V28H219.552C218.002 28 216.794 27.625 215.927 26.875C215.061 26.1083 214.627 24.8667 214.627 23.15V17.6H212.927V14.05H214.627V10.65H218.902V14.05H221.702V17.6H218.902V23.2C218.902 23.6167 219.002 23.9167 219.202 24.1C219.402 24.2833 219.736 24.375 220.202 24.375H221.727ZM226.259 12.6C225.509 12.6 224.892 12.3833 224.409 11.95C223.942 11.5 223.709 10.95 223.709 10.3C223.709 9.63333 223.942 9.08333 224.409 8.65C224.892 8.2 225.509 7.975 226.259 7.975C226.992 7.975 227.592 8.2 228.059 8.65C228.542 9.08333 228.784 9.63333 228.784 10.3C228.784 10.95 228.542 11.5 228.059 11.95C227.592 12.3833 226.992 12.6 226.259 12.6ZM228.384 14.05V28H224.109V14.05H228.384ZM237.832 28.2C236.465 28.2 235.232 27.9083 234.132 27.325C233.048 26.7417 232.19 25.9083 231.557 24.825C230.94 23.7417 230.632 22.475 230.632 21.025C230.632 19.5917 230.948 18.3333 231.582 17.25C232.215 16.15 233.082 15.3083 234.182 14.725C235.282 14.1417 236.515 13.85 237.882 13.85C239.248 13.85 240.482 14.1417 241.582 14.725C242.682 15.3083 243.548 16.15 244.182 17.25C244.815 18.3333 245.132 19.5917 245.132 21.025C245.132 22.4583 244.807 23.725 244.157 24.825C243.523 25.9083 242.648 26.7417 241.532 27.325C240.432 27.9083 239.198 28.2 237.832 28.2ZM237.832 24.5C238.648 24.5 239.34 24.2 239.907 23.6C240.49 23 240.782 22.1417 240.782 21.025C240.782 19.9083 240.498 19.05 239.932 18.45C239.382 17.85 238.698 17.55 237.882 17.55C237.048 17.55 236.357 17.85 235.807 18.45C235.257 19.0333 234.982 19.8917 234.982 21.025C234.982 22.1417 235.248 23 235.782 23.6C236.332 24.2 237.015 24.5 237.832 24.5ZM255.9 13.9C257.533 13.9 258.833 14.4333 259.8 15.5C260.783 16.55 261.275 18 261.275 19.85V28H257.025V20.425C257.025 19.4917 256.783 18.7667 256.3 18.25C255.816 17.7333 255.166 17.475 254.35 17.475C253.533 17.475 252.883 17.7333 252.4 18.25C251.916 18.7667 251.675 19.4917 251.675 20.425V28H247.4V14.05H251.675V15.9C252.108 15.2833 252.691 14.8 253.425 14.45C254.158 14.0833 254.983 13.9 255.9 13.9ZM269.92 28.2C268.704 28.2 267.62 27.9917 266.67 27.575C265.72 27.1583 264.97 26.5917 264.42 25.875C263.87 25.1417 263.562 24.325 263.495 23.425H267.72C267.77 23.9083 267.995 24.3 268.395 24.6C268.795 24.9 269.287 25.05 269.87 25.05C270.404 25.05 270.812 24.95 271.095 24.75C271.395 24.5333 271.545 24.2583 271.545 23.925C271.545 23.525 271.337 23.2333 270.92 23.05C270.504 22.85 269.829 22.6333 268.895 22.4C267.895 22.1667 267.062 21.925 266.395 21.675C265.729 21.4083 265.154 21 264.67 20.45C264.187 19.8833 263.945 19.125 263.945 18.175C263.945 17.375 264.162 16.65 264.595 16C265.045 15.3333 265.695 14.8083 266.545 14.425C267.412 14.0417 268.437 13.85 269.62 13.85C271.37 13.85 272.745 14.2833 273.745 15.15C274.762 16.0167 275.345 17.1667 275.495 18.6H271.545C271.479 18.1167 271.262 17.7333 270.895 17.45C270.545 17.1667 270.079 17.025 269.495 17.025C268.995 17.025 268.612 17.125 268.345 17.325C268.079 17.5083 267.945 17.7667 267.945 18.1C267.945 18.5 268.154 18.8 268.57 19C269.004 19.2 269.67 19.4 270.57 19.6C271.604 19.8667 272.445 20.1333 273.095 20.4C273.745 20.65 274.312 21.0667 274.795 21.65C275.295 22.2167 275.554 22.9833 275.57 23.95C275.57 24.7667 275.337 25.5 274.87 26.15C274.42 26.7833 273.762 27.2833 272.895 27.65C272.045 28.0167 271.054 28.2 269.92 28.2ZM283.811 9.825L283.311 21.8H279.686L279.186 9.825H283.811ZM281.561 28.2C280.811 28.2 280.194 27.9833 279.711 27.55C279.244 27.1 279.011 26.55 279.011 25.9C279.011 25.2333 279.244 24.675 279.711 24.225C280.194 23.775 280.811 23.55 281.561 23.55C282.294 23.55 282.894 23.775 283.361 24.225C283.844 24.675 284.086 25.2333 284.086 25.9C284.086 26.55 283.844 27.1 283.361 27.55C282.894 27.9833 282.294 28.2 281.561 28.2Z" fill="white"/>
</svg>
